<svg xmlns="http://www.w3.org/2000/svg" width="75" height="25" viewBox="0 0 75 25"><defs><linearGradient id="icada" x1="-8.7" x2="17.16" y1="-11.52" y2="19.7" gradientUnits="userSpaceOnUse"><stop offset="0" stop-color="#4690ff"/><stop offset="1" stop-color="#9966e0"/></linearGradient><linearGradient id="icadb" x1="17.5" x2="37" y1="17.45" y2="-5.73" gradientUnits="userSpaceOnUse"><stop offset=".33" stop-color="#7e4d99"/><stop offset=".34" stop-color="#7b509e"/><stop offset=".47" stop-color="#6867c1"/><stop offset=".6" stop-color="#5979dc"/><stop offset=".73" stop-color="#4f86ef"/><stop offset=".86" stop-color="#488dfb"/><stop offset="1" stop-color="#4690ff"/></linearGradient><linearGradient id="icadc" x1="19.56" x2="28.87" y1="-2.31" y2="16.17" gradientUnits="userSpaceOnUse"><stop offset=".33" stop-color="#7e4d99"/><stop offset=".34" stop-color="#7b509e"/><stop offset=".47" stop-color="#6867c1"/><stop offset=".6" stop-color="#5979dc"/><stop offset=".73" stop-color="#4f86ef"/><stop offset=".86" stop-color="#488dfb"/><stop offset="1" stop-color="#4690ff"/></linearGradient></defs><g><g><g><g><path fill="#1b2949" d="M22.755 23.29a5.216 5.216 0 0 1-1.456.815 4.935 4.935 0 0 1-1.682.289c-1.38 0-2.56-.49-3.539-1.467-.979-.978-1.468-2.156-1.468-3.535 0-1.38.49-2.558 1.468-3.535.98-.978 2.159-1.467 3.54-1.467 1.367 0 2.547.489 3.538 1.467.98.977 1.469 2.156 1.469 3.535v4.074c0 .25-.088.476-.276.652a.912.912 0 0 1-.653.276.872.872 0 0 1-.665-.276.881.881 0 0 1-.276-.652zm-3.138-7.032c-.439 0-.853.088-1.23.25a3.03 3.03 0 0 0-.991.677 3.351 3.351 0 0 0-.665.99 3.056 3.056 0 0 0 0 2.433c.163.376.389.714.665.99.276.288.615.502.991.677.377.163.791.25 1.23.25.44 0 .841-.087 1.23-.25a3.03 3.03 0 0 0 .992-.677c.288-.288.502-.614.665-.99a2.996 2.996 0 0 0 0-2.407 3.167 3.167 0 0 0-1.657-1.667 2.76 2.76 0 0 0-1.23-.276z"/></g><g><path fill="#1b2949" d="M30.927 14.395c1.18 0 2.234.363 3.138 1.103v-4.45c0-.264.088-.49.263-.665a.909.909 0 0 1 .665-.263.917.917 0 0 1 .941.928v8.349c0 1.391-.489 2.57-1.468 3.535-.991.977-2.17 1.466-3.539 1.466-1.38 0-2.56-.489-3.539-1.466-.979-.978-1.468-2.156-1.468-3.535 0-1.38.49-2.558 1.468-3.536.98-.977 2.159-1.466 3.54-1.466zm3.125 5.002c0-.427-.088-.828-.25-1.204a3.167 3.167 0 0 0-1.657-1.667 3.08 3.08 0 0 0-1.23-.25c-.44 0-.854.087-1.23.25a3.03 3.03 0 0 0-.991.677 3.351 3.351 0 0 0-.666.99 3.056 3.056 0 0 0 0 2.432c.164.376.39.715.666.99.276.289.614.502.99.677.377.163.792.251 1.23.251.44 0 .842-.088 1.23-.25a3.03 3.03 0 0 0 .992-.678c.289-.288.502-.614.665-.99.176-.401.251-.802.251-1.228z"/></g><g><path fill="#1b2949" d="M39.105 19.63c-.565-.213-.954-.439-1.18-.664h.013c-.452-.464-.678-.99-.678-1.618 0-.45.125-.865.364-1.228.238-.364.552-.677.941-.928.39-.25.828-.451 1.305-.589.49-.138.967-.213 1.456-.213 1.494 0 2.761.602 3.828 1.793a.85.85 0 0 1 .188.564.907.907 0 0 1-.263.664.909.909 0 0 1-.666.263.745.745 0 0 1-.49-.163 5.169 5.169 0 0 1-.388-.35 3.024 3.024 0 0 0-2.209-.916c-.853 0-1.543.264-2.058.79-.1.1-.138.226-.138.389s.075.275.238.338l4.18 1.38c.577.225.978.45 1.18.663h-.013c.451.464.677.99.677 1.618 0 .463-.125.865-.364 1.228a3.163 3.163 0 0 1-.94.928 4.421 4.421 0 0 1-1.306.589 5.23 5.23 0 0 1-1.456.2c-1.506 0-2.773-.589-3.828-1.78a.974.974 0 0 1-.2-.576c0-.263.088-.49.263-.665a.909.909 0 0 1 .665-.263c.201 0 .364.063.502.176.138.112.264.225.377.338a3.032 3.032 0 0 0 2.221.915c.854 0 1.531-.263 2.058-.802a.546.546 0 0 0 .138-.364.35.35 0 0 0-.238-.35z"/></g><g><path fill="#1b2949" d="M49.11 23.119c0 .35-.125.652-.376.902-.251.251-.553.376-.904.376s-.653-.125-.904-.376a1.23 1.23 0 0 1-.376-.902c0-.351.126-.652.376-.903.251-.25.553-.376.904-.376s.653.125.904.376c.263.263.376.552.376.903z"/></g><g><path fill="#1b2949" d="M54.907 14.407c1.368 0 2.548.49 3.54 1.467.489.476.853 1.015 1.104 1.605.238.589.364 1.228.364 1.918 0 1.391-.49 2.57-1.469 3.535-.991.977-2.17 1.466-3.539 1.466-1.38 0-2.56-.489-3.539-1.466-.979-.978-1.468-2.156-1.468-3.535v-8.35c0-.263.088-.488.264-.664a.909.909 0 0 1 .665-.263.917.917 0 0 1 .941.928v4.462c.891-.74 1.933-1.103 3.137-1.103zm-.012 8.123c.44 0 .84-.087 1.23-.25a3.03 3.03 0 0 0 .991-.677c.289-.288.502-.614.665-.99a2.996 2.996 0 0 0 0-2.407 3.167 3.167 0 0 0-1.657-1.667 3.08 3.08 0 0 0-1.23-.251c-.438 0-.853.087-1.23.25a3.03 3.03 0 0 0-.99.677 3.351 3.351 0 0 0-.666.99 3.056 3.056 0 0 0 0 2.433c.164.376.39.714.666.99.276.288.614.501.99.677.377.138.792.226 1.23.226z"/></g><g><path fill="#1b2949" d="M63.212 11.846a1.072 1.072 0 0 0-.778-.326c-.3 0-.564.113-.778.326a1.07 1.07 0 0 0-.326.777c0 .301.113.564.326.777.214.213.477.326.778.326.302 0 .565-.113.778-.326a1.07 1.07 0 0 0 .327-.777c0-.3-.113-.564-.327-.777zm-1.694 11.608a.89.89 0 0 0 .276.664.864.864 0 0 0 .653.276c.25 0 .477-.1.653-.275a.917.917 0 0 0 .276-.665v-8.123c0-.263-.1-.489-.276-.665a.864.864 0 0 0-.653-.275c-.251 0-.477.1-.653.275a.87.87 0 0 0-.276.665z"/></g><g><path fill="#1b2949" d="M69.987 14.395c1.18 0 2.234.363 3.138 1.103v-4.45c0-.264.088-.49.263-.665a.909.909 0 0 1 .665-.263.917.917 0 0 1 .941.928v8.349c0 1.391-.489 2.57-1.468 3.535-.991.977-2.17 1.466-3.539 1.466-1.38 0-2.56-.489-3.539-1.466-.979-.978-1.468-2.156-1.468-3.535 0-1.38.49-2.558 1.468-3.536.98-.977 2.159-1.466 3.54-1.466zm3.138 5.002c0-.427-.088-.828-.251-1.204a3.167 3.167 0 0 0-1.657-1.667 3.08 3.08 0 0 0-1.23-.25c-.439 0-.853.087-1.23.25a3.03 3.03 0 0 0-.991.677 3.351 3.351 0 0 0-.665.99 3.056 3.056 0 0 0 0 2.432c.163.376.389.715.665.99.276.289.615.502.991.677.377.163.791.251 1.23.251.44 0 .841-.088 1.23-.25a3.03 3.03 0 0 0 .992-.678c.288-.288.502-.614.665-.99a3.21 3.21 0 0 0 .25-1.228z"/></g></g><g><path fill="url(#icada)" d="M20.936 5.168a2.46 2.46 0 0 1 1.004-.037l-5.183-1.592A2.485 2.485 0 0 0 15.44 3.5a2.431 2.431 0 0 0-1.167.602L.794 16.6a2.477 2.477 0 0 0-.126 3.51 2.484 2.484 0 0 0 3.514.125L16.644 8.678l3.138-2.908c.326-.3.728-.501 1.154-.602z"/></g><g><path fill="url(#icadb)" d="M26.783 6.17c.025.012.062.012.088.024l.188.038c.025 0 .063.013.088.013.075.012.15.025.226.025h.037c.088.012.176.012.276.012h.389c.063 0 .113 0 .176-.012.038 0 .075 0 .113-.013.063-.012.138-.012.2-.025.026 0 .051-.013.076-.013.088-.012.176-.037.264-.05.025 0 .05-.012.087-.025.063-.012.126-.037.189-.05.037-.012.062-.025.1-.025.063-.013.113-.038.176-.063.037-.012.063-.025.1-.037.063-.025.126-.05.176-.075l.075-.038c.088-.038.163-.075.251-.125.013-.013.038-.013.05-.026.063-.037.138-.075.201-.112.025-.013.05-.038.075-.05.05-.038.1-.063.164-.1.025-.026.05-.038.087-.063.05-.038.1-.076.164-.113.025-.013.05-.038.075-.05.075-.063.15-.126.213-.188l1.33-1.241c.578-.54.841-1.28.779-2.006a1.739 1.739 0 0 0-.578-1.166L32.593.59c-.966-.84-2.422-.765-3.363.1l-5.02 4.663 2.297.703a.757.757 0 0 0 .276.112z"/></g><g><path fill="url(#icadc)" d="M27.678 6.787a3.84 3.84 0 0 1-.916-.188l-2.886-.89s-.013-.013 0-.013l-.013.013-.778-.226a2.507 2.507 0 0 0-1.217-.05h-.013c-.452.088-.89.3-1.255.627l-3.2 2.87 6.589 2.006c.351.063.702.038 1.029-.038a2.426 2.426 0 0 0 1.192-.614l3.125-2.896.288-.275 1.682-1.567c-.966.927-2.309 1.366-3.627 1.24z"/></g></g></g></svg>