<svg xmlns="http://www.w3.org/2000/svg" width="136" height="45" viewBox="0 0 136 45"><defs><linearGradient id="8sixa" x1="-15.77" x2="31.11" y1="-20.62" y2="36" gradientUnits="userSpaceOnUse"><stop offset="0" stop-color="#4690ff"/><stop offset="1" stop-color="#9966e0"/></linearGradient><linearGradient id="8sixb" x1="32.3" x2="67.63" y1="31.63" y2="-10.38" gradientUnits="userSpaceOnUse"><stop offset=".33" stop-color="#7e4d99"/><stop offset=".34" stop-color="#7b509e"/><stop offset=".47" stop-color="#6867c1"/><stop offset=".6" stop-color="#5979dc"/><stop offset=".73" stop-color="#4f86ef"/><stop offset=".86" stop-color="#488dfb"/><stop offset="1" stop-color="#4690ff"/></linearGradient><linearGradient id="8sixc" x1="35.45" x2="52.37" y1="-4.12" y2="29.77" gradientUnits="userSpaceOnUse"><stop offset=".33" stop-color="#7e4d99"/><stop offset=".34" stop-color="#7b509e"/><stop offset=".47" stop-color="#6867c1"/><stop offset=".6" stop-color="#5979dc"/><stop offset=".73" stop-color="#4f86ef"/><stop offset=".86" stop-color="#488dfb"/><stop offset="1" stop-color="#4690ff"/></linearGradient></defs><g><g><g><path fill="#fff" d="M37.812 30.241c.706.275 1.294.706 1.804 1.216s.901 1.137 1.215 1.803a5.92 5.92 0 0 1 .431 2.196c0 .784-.117 1.53-.431 2.196-.314.666-.706 1.294-1.216 1.804a5.84 5.84 0 0 1-1.803 1.215c-.706.314-1.45.47-2.235.47-.784 0-1.53-.156-2.235-.47a5.84 5.84 0 0 1-1.804-1.216 5.843 5.843 0 0 1-1.215-1.803 5.768 5.768 0 0 1-.432-2.196c0-.784.118-1.49.432-2.196a5.844 5.844 0 0 1 1.215-1.803 5.844 5.844 0 0 1 1.804-1.216 5.442 5.442 0 0 1 2.235-.47c.784 0 1.53.117 2.235.47zm3.45 12.587c0 .47.157.862.51 1.137.353.353.745.51 1.216.51a1.7 1.7 0 0 0 1.176-.51c.353-.314.51-.706.51-1.177v-7.371c0-2.51-.902-4.666-2.667-6.43-1.803-1.765-3.96-2.667-6.43-2.667-2.51 0-4.666.902-6.43 2.666-1.765 1.804-2.667 3.921-2.667 6.43 0 2.51.902 4.667 2.666 6.431 1.804 1.765 3.921 2.667 6.43 2.667 1.099 0 2.118-.157 3.06-.51a9.251 9.251 0 0 0 2.626-1.49z"/></g><g><path fill="#fff" d="M61.301 37.656c-.314.667-.706 1.294-1.216 1.804s-1.097.902-1.803 1.216c-.706.313-1.45.47-2.235.47-.784 0-1.53-.157-2.235-.47a5.844 5.844 0 0 1-1.804-1.216 5.843 5.843 0 0 1-1.215-1.804 5.769 5.769 0 0 1-.432-2.195c0-.785.118-1.49.432-2.196a5.844 5.844 0 0 1 1.215-1.804 5.844 5.844 0 0 1 1.804-1.215 5.442 5.442 0 0 1 2.235-.471c.823 0 1.529.157 2.235.47.706.275 1.294.706 1.804 1.216s.901 1.137 1.215 1.804a5.92 5.92 0 0 1 .431 2.196 6.08 6.08 0 0 1-.431 2.195zM49.616 29.03c-1.764 1.804-2.666 3.921-2.666 6.43 0 2.51.902 4.667 2.666 6.431 1.804 1.765 3.921 2.666 6.43 2.666 2.51 0 4.628-.901 6.431-2.666 1.765-1.764 2.667-3.921 2.667-6.43V20.286c0-.51-.196-.902-.51-1.215a1.753 1.753 0 0 0-1.216-.471c-.51 0-.901.157-1.215.47-.314.314-.47.746-.47 1.216v8.077c-1.647-1.333-3.53-2-5.686-2-2.51 0-4.627.903-6.43 2.667z"/></g><g><path fill="#fff" d="M70.872 35.888c-1.02-.392-1.725-.784-2.156-1.215-.824-.824-1.216-1.804-1.216-2.941 0-.824.235-1.569.667-2.235.43-.667 1.019-1.216 1.725-1.686a7.795 7.795 0 0 1 2.392-1.059c.862-.235 1.764-.392 2.666-.392 2.705 0 5.019 1.098 6.94 3.254.235.275.353.628.353 1.02 0 .47-.157.902-.47 1.215-.314.314-.706.471-1.216.471-.353 0-.627-.078-.902-.274-.235-.197-.47-.393-.706-.628-1.097-1.098-2.43-1.647-3.999-1.647-1.568 0-2.784.47-3.725 1.412a.973.973 0 0 0-.274.706c0 .313.156.51.43.627l7.569 2.51c1.058.392 1.764.823 2.156 1.215.824.824 1.216 1.804 1.216 2.94 0 .824-.236 1.57-.667 2.236-.431.666-1.02 1.215-1.725 1.686-.706.47-1.49.823-2.353 1.059-.863.235-1.764.392-2.627.392-2.706 0-5.019-1.059-6.94-3.216a1.72 1.72 0 0 1-.353-1.058c0-.47.157-.902.47-1.216.314-.313.706-.47 1.216-.47.353 0 .666.117.902.313.235.196.47.432.666.589 1.098 1.097 2.431 1.646 4.039 1.646 1.53 0 2.784-.47 3.725-1.45a.99.99 0 0 0 .235-.667c0-.314-.157-.51-.431-.627z"/></g><g><path fill="#fff" d="M89.027 42.203c0 .628-.235 1.177-.667 1.647-.431.432-.98.667-1.647.667-.627 0-1.176-.235-1.646-.667-.432-.431-.667-.98-.667-1.647 0-.627.235-1.176.667-1.646.43-.432.98-.667 1.646-.667.628 0 1.177.235 1.647.667.47.47.667 1.02.667 1.646z"/></g><g><path fill="#fff" d="M97.302 40.675a5.844 5.844 0 0 1-1.804-1.215 5.843 5.843 0 0 1-1.215-1.804 5.769 5.769 0 0 1-.432-2.195c0-.785.118-1.49.432-2.196a5.844 5.844 0 0 1 1.215-1.804 5.844 5.844 0 0 1 1.804-1.215 5.442 5.442 0 0 1 2.235-.471c.823 0 1.529.157 2.235.47.706.275 1.294.706 1.803 1.216.51.51.902 1.137 1.216 1.804a5.92 5.92 0 0 1 .431 2.196c0 .784-.117 1.529-.431 2.195-.314.667-.706 1.294-1.215 1.804-.51.51-1.098.902-1.804 1.216-.706.313-1.451.47-2.235.47-.784 0-1.53-.157-2.235-.47zm-3.45-12.272v-8.117c0-.51-.197-.902-.51-1.215a1.753 1.753 0 0 0-1.216-.471c-.51 0-.902.157-1.215.47-.314.314-.471.746-.471 1.216V35.5c0 2.51.902 4.666 2.666 6.43 1.804 1.765 3.921 2.667 6.43 2.667 2.51 0 4.628-.902 6.431-2.667 1.765-1.764 2.667-3.92 2.667-6.43a9.22 9.22 0 0 0-.667-3.49c-.431-1.098-1.098-2.078-2-2.94-1.803-1.765-3.96-2.667-6.43-2.667-2.196 0-4.078.666-5.686 2z"/></g><g><path fill="#fff" d="M111.534 28.09c0-.47.157-.862.51-1.215a1.7 1.7 0 0 1 1.176-.51c.47 0 .862.157 1.176.51.314.313.51.745.51 1.215v14.743c0 .47-.196.863-.51 1.216a1.7 1.7 0 0 1-1.176.51c-.47 0-.863-.157-1.177-.51-.352-.353-.51-.745-.51-1.255zm3.685-4.94c0 .549-.196 1.02-.588 1.411a1.925 1.925 0 0 1-1.411.588c-.55 0-1.02-.196-1.412-.588a1.925 1.925 0 0 1-.588-1.411c0-.55.196-1.02.588-1.412a1.925 1.925 0 0 1 1.412-.588c.549 0 1.02.196 1.411.588.392.392.588.863.588 1.412z"/></g><g><path fill="#fff" d="M132.161 37.656c-.314.667-.706 1.294-1.215 1.804-.51.51-1.098.902-1.804 1.216-.706.313-1.45.47-2.235.47-.784 0-1.53-.157-2.235-.47a5.844 5.844 0 0 1-1.804-1.216 5.843 5.843 0 0 1-1.215-1.804 5.769 5.769 0 0 1-.432-2.195c0-.785.118-1.49.432-2.196a5.844 5.844 0 0 1 1.215-1.804 5.844 5.844 0 0 1 1.804-1.215 5.442 5.442 0 0 1 2.235-.471c.823 0 1.529.157 2.235.47.706.275 1.294.706 1.804 1.216s.901 1.137 1.215 1.804c.275.706.431 1.411.431 2.196 0 .745-.157 1.49-.43 2.195zm-11.685-8.626c-1.764 1.804-2.666 3.921-2.666 6.43 0 2.51.902 4.667 2.666 6.431 1.804 1.765 3.921 2.666 6.43 2.666 2.51 0 4.628-.901 6.431-2.666 1.765-1.764 2.667-3.921 2.667-6.43V20.286c0-.51-.196-.902-.51-1.215a1.753 1.753 0 0 0-1.216-.471c-.51 0-.901.157-1.215.47-.314.314-.47.746-.47 1.216v8.077c-1.647-1.333-3.53-2-5.686-2-2.51 0-4.627.903-6.43 2.667z"/></g><g><path fill="url(#8sixa)" d="M37.935 9.619c.588-.157 1.215-.157 1.843-.079l-9.411-2.862a4.973 4.973 0 0 0-2.392-.079 4.25 4.25 0 0 0-2.117 1.098L1.43 30.4c-1.804 1.686-1.922 4.549-.236 6.352 1.686 1.804 4.549 1.921 6.352.235L30.132 16.01l5.685-5.294c.628-.549 1.373-.94 2.118-1.097z"/></g><g><path fill="url(#8sixb)" d="M49.087 11.144c2.745.667 5.725-.117 7.803-2.039l2.43-2.235a4.391 4.391 0 0 0 1.412-3.646c-.078-.823-.431-1.568-1.058-2.117l-.04-.04c-1.764-1.529-4.391-1.372-6.077.196l-9.097 8.47c1.45.47 3.098 1.059 4.627 1.411z"/></g><g><path fill="url(#8sixc)" d="M50.165 12.564c-.549-.04-1.099-.189-1.647-.353l-5.254-1.608c-.431-.117-.98-.274-1.45-.431-.707-.196-1.49-.274-2.197-.078a4.811 4.811 0 0 0-2.274 1.137l-5.803 5.215 11.96 3.646c.673.182 1.303.182 2.002.042.784-.157 1.408-.63 2.036-1.218l5.646-5.254.55-.51 3.058-2.823c-1.804 1.647-4.235 2.47-6.627 2.235z"/></g></g></g></svg>