<?xml version="1.0" encoding="utf-8"?><svg xmlns="http://www.w3.org/2000/svg" xmlns:xlink="http://www.w3.org/1999/xlink"><symbol viewBox="0 0 22 22" id="1" xmlns="http://www.w3.org/2000/svg"><path d="M10.057.724a1.333 1.333 0 011.886 1.886L4.885 9.667h15.448a1.333 1.333 0 010 2.667H4.886l7.057 7.057a1.333 1.333 0 11-1.886 1.885L.724 11.943a1.333 1.333 0 010-1.886z"/></symbol><symbol viewBox="0 0 22 22" id="2" xmlns="http://www.w3.org/2000/svg"><path d="M11.94.72a1.333 1.333 0 00-1.886 1.886l7.057 7.057H1.663a1.333 1.333 0 000 2.667h15.448l-7.057 7.057a1.333 1.333 0 101.886 1.886l9.333-9.333c.52-.521.52-1.365 0-1.886z"/></symbol><symbol viewBox="0 0 24 20" id="3" xmlns="http://www.w3.org/2000/svg"><path d="M23.909 1.788l-3.61 17.05c-.25 1.21-.98 1.5-2 .94l-5.5-4.07-2.66 2.57c-.3.3-.55.56-1.1.56-.72 0-.6-.27-.84-.95l-1.9-6.19-5.45-1.7c-1.18-.35-1.19-1.16.26-1.75l21.26-8.2c.97-.43 1.9.24 1.53 1.73z"/></symbol><symbol viewBox="0 0 24 20" id="4" xmlns="http://www.w3.org/2000/svg"><path d="M2.304 6.382c.303.215 1.218.851 2.745 1.909a672.48 672.48 0 013.509 2.444c.09.063.279.199.569.409.29.21.531.38.723.509.192.129.424.274.697.435.272.16.529.281.77.36.241.082.464.121.67.121h.026c.206 0 .43-.04.67-.12.241-.08.498-.2.77-.361.273-.161.505-.306.697-.435.192-.13.433-.3.723-.51.29-.21.48-.345.57-.408.82-.571 2.91-2.022 6.267-4.353a6.363 6.363 0 001.634-1.647c.437-.643.656-1.317.656-2.022 0-.59-.212-1.094-.636-1.514A2.07 2.07 0 0021.857.57H2.143C1.455.57.926.802.556 1.266.186 1.731 0 2.311 0 3.007 0 3.57.246 4.18.737 4.836c.49.656 1.013 1.172 1.567 1.546z"/><path d="M22.66 7.815c-2.928 1.982-5.151 3.522-6.669 4.62a30.98 30.98 0 01-1.239.878c-.317.21-.738.424-1.265.643-.527.219-1.018.328-1.473.328h-.027c-.456 0-.947-.11-1.474-.328-.526-.219-.948-.433-1.265-.643-.317-.21-.73-.502-1.239-.877-1.205-.884-3.424-2.425-6.656-4.62C.843 7.475.393 7.086 0 6.65v10.634c0 .59.21 1.094.63 1.513.419.42.924.63 1.513.63h19.714c.59 0 1.094-.21 1.514-.63.42-.42.629-.924.629-1.513V6.65c-.384.428-.83.817-1.34 1.165z"/></symbol></svg>