<svg xmlns="http://www.w3.org/2000/svg" width="18" height="19" viewBox="0 0 18 19"><g><g><path fill="#aac670" d="M3.15.43l-.004.018c.361 0 .685.164.939.465.006.003.867 1.04 1.239 1.547.35.48.823 1.242 1.062 1.668.426.763.154 1.545-.257 1.867l-.844.674c-.426.342-.375.975-.375.975s1.255 4.725 5.91 5.916c0 0 .636.057.976-.368l.675-.853c.317-.426 1.094-.695 1.856-.27.424.225 1.186.697 1.665 1.054.505.357 1.542 1.235 1.548 1.235.492.405.603 1.03.268 1.659v.024a7.07 7.07 0 0 1-1.395 1.707h-.01c-.471.404-.94.627-1.41.672-.045 0-.114.023-.203 0a2.68 2.68 0 0 1-.603-.091v-.021c-.717-.203-1.905-.72-3.876-1.819a23.619 23.619 0 0 1-3.267-2.176 18.485 18.485 0 0 1-1.456-1.304l-.114-.042-.045-.045-.044-.042a17.487 17.487 0 0 1-1.3-1.467A24.43 24.43 0 0 1 1.937 8.14C.84 6.165.326 4.974.123 4.255H.1a1.418 1.418 0 0 1-.09-.604c-.02-.09 0-.158 0-.21.045-.449.284-.92.684-1.413h.008A6.904 6.904 0 0 1 2.41.633c.218-.128.465-.198.718-.203zM8.58.934c.04-.71.694-.447 1.01-.492 4.186.141 7.792 3.983 7.74 8.126-.005.406.14 1.01-.464.997-.578-.01-.428-.622-.48-1.029-.555-4.4-2.565-6.475-6.923-7.147-.36-.056-.91.022-.885-.455zm.666 1.995c.097-.582.65-.385 1.07-.334 2.69.324 4.886 2.662 4.865 5.232-.042.303.135.825-.354.9-.663.099-.534-.509-.598-.899-.443-2.676-1.38-3.657-4.073-4.26-.396-.09-1.012-.027-.91-.639zm1.317 1.767c1.194-.03 2.592 1.403 2.572 2.643.012.34-.024.696-.424.743-.288.034-.479-.209-.507-.507-.111-1.104-.692-1.755-1.797-1.935-.33-.053-.656-.16-.501-.608.103-.3.378-.33.657-.336z"/></g></g></svg>