<svg height="512" viewBox="0 0 192 192" width="512" xmlns="http://www.w3.org/2000/svg"><path d="m192 32v-8a24 24 0 0 0 -48 0v24h-40v-24a8 8 0 0 1 16 0v8h16v-8a24 24 0 0 0 -48 0v89.2a46.4 46.4 0 0 0 -11.194-1.2c-19.2 0-19.2 8-38.4 8s-19.206-8-38.406-8v32c19.2 0 19.2 8 38.4 8s19.2-8 38.4-8 19.2 8 38.4 8 19.2-8 38.4-8 19.2 8 38.4 8v-32c-16.789 0-18.9-6.117-32-7.653v-88.347a8 8 0 0 1 16 0v8zm-48 32v16h-40v-16zm-40 54.8v-22.8h40v16.853c-10.374 2.059-13.48 7.147-28.8 7.147a46.407 46.407 0 0 1 -11.2-1.2z"/><path d="m115.2 160c-19.2 0-19.2-8-38.4-8s-19.2 8-38.4 8-19.2-8-38.4-8v40h192v-32c-19.2 0-19.2-8-38.4-8s-19.2 8-38.4 8z"/></svg>