<?xml version="1.0" encoding="utf-8"?><svg xmlns="http://www.w3.org/2000/svg" xmlns:xlink="http://www.w3.org/1999/xlink"><symbol viewBox="0 0 52 52" id="1" xmlns="http://www.w3.org/2000/svg"><path d="M26 0C11.664 0 0 11.663 0 26s11.664 26 26 26 26-11.663 26-26S40.336 0 26 0zm0 50C12.767 50 2 39.233 2 26S12.767 2 26 2s24 10.767 24 24-10.767 24-24 24z"/><path d="M38.252 15.336l-15.369 17.29-9.259-7.407a1 1 0 00-1.249 1.562l10 8a.999.999 0 001.373-.117l16-18a1 1 0 10-1.496-1.328z"/></symbol><symbol viewBox="0 0 492 492" id="10" xmlns="http://www.w3.org/2000/svg"><path d="M300.188 246L484.14 62.04c5.06-5.064 7.852-11.82 7.86-19.024 0-7.208-2.792-13.972-7.86-19.028L468.02 7.872C462.952 2.796 456.196.016 448.984.016c-7.2 0-13.956 2.78-19.024 7.856L246.008 191.82 62.048 7.872C56.988 2.796 50.228.016 43.02.016c-7.2 0-13.96 2.78-19.02 7.856L7.872 23.988c-10.496 10.496-10.496 27.568 0 38.052L191.828 246 7.872 429.952C2.808 435.024.02 441.78.02 448.984c0 7.204 2.788 13.96 7.852 19.028l16.124 16.116c5.06 5.072 11.824 7.856 19.02 7.856 7.208 0 13.968-2.784 19.028-7.856l183.96-183.952 183.952 183.952c5.068 5.072 11.824 7.856 19.024 7.856h.008c7.204 0 13.96-2.784 19.028-7.856l16.12-16.116c5.06-5.064 7.852-11.824 7.852-19.028 0-7.204-2.792-13.96-7.852-19.028L300.188 246z"/></symbol><symbol viewBox="-42 0 512 512.002" id="11" xmlns="http://www.w3.org/2000/svg"><path d="M210.352 246.633c33.882 0 63.222-12.153 87.195-36.13 23.973-23.972 36.125-53.304 36.125-87.19 0-33.876-12.152-63.211-36.129-87.192C273.566 12.152 244.23 0 210.352 0c-33.887 0-63.22 12.152-87.192 36.125s-36.129 53.309-36.129 87.188c0 33.886 12.156 63.222 36.133 87.195 23.977 23.969 53.313 36.125 87.188 36.125zm215.777 147.07c-.692-9.976-2.09-20.86-4.149-32.351-2.078-11.579-4.753-22.524-7.957-32.528-3.308-10.34-7.808-20.55-13.37-30.336-5.774-10.156-12.555-19-20.165-26.277-7.957-7.613-17.699-13.734-28.965-18.2-11.226-4.44-23.668-6.69-36.976-6.69-5.227 0-10.281 2.144-20.043 8.5a2711.03 2711.03 0 01-20.879 13.46c-6.707 4.274-15.793 8.278-27.016 11.903-10.949 3.543-22.066 5.34-33.039 5.34-10.972 0-22.086-1.797-33.047-5.34-11.21-3.622-20.296-7.625-26.996-11.899a2853.13 2853.13 0 01-20.898-13.469c-9.75-6.355-14.809-8.5-20.035-8.5-13.313 0-25.75 2.254-36.973 6.7-11.258 4.457-21.004 10.578-28.969 18.199-7.605 7.281-14.39 16.12-20.156 26.273-5.558 9.785-10.058 19.992-13.371 30.34-3.2 10.004-5.875 20.945-7.953 32.524-2.059 11.476-3.457 22.363-4.149 32.363A438.821 438.821 0 000 423.949c0 26.727 8.496 48.363 25.25 64.32 16.547 15.747 38.441 23.735 65.066 23.735h246.532c26.625 0 48.511-7.984 65.062-23.734 16.758-15.946 25.254-37.586 25.254-64.325-.004-10.316-.351-20.492-1.035-30.242zm0 0"/></symbol><symbol viewBox="0 -105 512.001 512" id="12" xmlns="http://www.w3.org/2000/svg"><path d="M192.766 301.484c-5.188 0-10.227-2.691-13.004-7.5l-18.5-32.043c-4.145-7.175-1.688-16.351 5.488-20.492s16.348-1.683 20.488 5.492l18.5 32.043c4.145 7.172 1.688 16.348-5.488 20.489a14.938 14.938 0 01-7.484 2.011zm72.5 0c-5.188 0-10.227-2.691-13.004-7.5l-18.5-32.043c-4.145-7.175-1.688-16.351 5.488-20.492s16.348-1.683 20.488 5.492l18.5 32.043c4.145 7.172 1.688 16.348-5.488 20.489a14.938 14.938 0 01-7.484 2.011zm72.5 0c-5.188 0-10.227-2.691-13.004-7.5l-18.5-32.043c-4.145-7.175-1.688-16.351 5.488-20.492s16.348-1.683 20.488 5.492l18.5 32.043c4.145 7.172 1.688 16.348-5.488 20.489a14.938 14.938 0 01-7.484 2.011zM102.969 182.742l-4.852 32.746h315.766l-4.852-32.746zm0 0"/><path d="M468.863 0H43.137C19.352 0 0 19.352 0 43.133v129.219c0 23.785 19.352 43.136 43.137 43.136h24.656l.316-2.144.844-5.688 2.695-18.21 3.54-23.903a15.002 15.002 0 0114.84-12.8h331.949a14.998 14.998 0 0114.835 12.8l3.54 23.902 2.699 18.211.84 5.688.32 2.144h24.656c23.781 0 43.133-19.351 43.133-43.136V43.132C512 19.353 492.648 0 468.863 0zm-57.152 127.992c-8.902 0-16.149-7.246-16.149-16.148s7.247-16.149 16.149-16.149c8.902 0 16.148 7.246 16.148 16.149s-7.246 16.148-16.148 16.148zm0-42c-8.902 0-16.149-7.246-16.149-16.148s7.247-16.149 16.149-16.149c8.902 0 16.148 7.246 16.148 16.149s-7.246 16.148-16.148 16.148zm0 0"/></symbol><symbol viewBox="0 0 512 512" id="13" xmlns="http://www.w3.org/2000/svg"><path d="M0 62.171v226.325h512V62.171zM512 383.06v-63.216H0v63.216h220.473v35.422h-61.649v31.347h194.351v-31.347h-61.649V383.06H512zm-245.248-31.347v9.101H245.07v-21.682h21.682v12.581z"/></symbol><symbol viewBox="0 0 50 56" id="14" xmlns="http://www.w3.org/2000/svg"><rect height="8" rx="1" width="4" x="42" y="31"/><rect height="8" rx="1" width="4" x="42" y="11"/><path d="M26.531 28.7a4 4 0 10-3.067-7.389 4 4 0 003.067 7.389zM4.167 54a2 2 0 002 2H16a2 2 0 002-2v-2H4.167zM32 54a2 2 0 002 2h9.833a2 2 0 002-2v-2H32z"/><path d="M47 0H3.17a3 3 0 00-3 3v44a3 3 0 003 3H47a3 3 0 003-3V3a3 3 0 00-3-3zm1 18a3 3 0 01-3 3v8a3 3 0 013 3v6a3 3 0 01-3 3v1a3 3 0 01-3 3H8a3 3 0 01-3-3v-9a1 1 0 012 0v9a1 1 0 001 1h34a1 1 0 001-1v-1a3 3 0 01-3-3v-6a3 3 0 013-3v-8a3 3 0 01-3-3v-6a3 3 0 013-3V8a1 1 0 00-1-1H8a1 1 0 00-1 1v20a1 1 0 01-2 0V8a3 3 0 013-3h34a3 3 0 013 3v1a3 3 0 013 3zm-33-7h-4v4a1 1 0 01-2 0v-5a1 1 0 011-1h5a1 1 0 010 2zm5.408 2.914a12 12 0 11-6.494 6.494 11.917 11.917 0 016.494-6.494z"/><path d="M16.3 27.521a1 1 0 11.766 1.847l-.878.364a9.913 9.913 0 004.078 4.079l.364-.879a1 1 0 111.847.766l-.363.878a9.909 9.909 0 005.768 0l-.363-.878a1 1 0 111.847-.766l.364.878a9.913 9.913 0 004.079-4.078l-.879-.364a1 1 0 11.766-1.847l.878.363a9.909 9.909 0 000-5.768l-.878.363a1 1 0 11-.766-1.847l.878-.364a9.913 9.913 0 00-4.078-4.079l-.364.879a1 1 0 11-1.847-.766l.363-.878a9.909 9.909 0 00-5.768 0l.363.878a1 1 0 11-1.847.766l-.364-.878a9.913 9.913 0 00-4.079 4.078l.879.364a1 1 0 11-.766 1.847l-.878-.363a9.909 9.909 0 000 5.768zm6.4-8.064a6 6 0 114.597 11.085A6 6 0 0122.7 19.457z"/></symbol><symbol viewBox="0 0 192 192" id="15" xmlns="http://www.w3.org/2000/svg"><path d="M192 32v-8a24 24 0 00-48 0v24h-40V24a8 8 0 0116 0v8h16v-8a24 24 0 00-48 0v89.2a46.4 46.4 0 00-11.194-1.2c-19.2 0-19.2 8-38.4 8S19.2 112 0 112v32c19.2 0 19.2 8 38.4 8s19.2-8 38.4-8 19.2 8 38.4 8 19.2-8 38.4-8 19.2 8 38.4 8v-32c-16.789 0-18.9-6.117-32-7.653V24a8 8 0 0116 0v8zm-48 32v16h-40V64zm-40 54.8V96h40v16.853c-10.374 2.059-13.48 7.147-28.8 7.147a46.407 46.407 0 01-11.2-1.2zm11.2 41.2c-19.2 0-19.2-8-38.4-8s-19.2 8-38.4 8-19.2-8-38.4-8v40h192v-32c-19.2 0-19.2-8-38.4-8s-19.2 8-38.4 8z"/></symbol><symbol viewBox="0 0 511.999 511.999" id="16" xmlns="http://www.w3.org/2000/svg"><path d="M503.058 157.279l-42.338-42.338 31.827-31.815a14.986 14.986 0 00.001-21.209l-42.612-42.612c-5.625-5.625-15.586-5.625-21.211 0L396.91 51.132 354.566 8.786c-11.715-11.715-30.71-11.715-42.426 0-11.717 11.715-11.717 30.71 0 42.426l148.491 148.493c11.717 11.715 30.712 11.715 42.427 0s11.715-30.71 0-42.426zM199.86 460.786L51.369 312.293c-11.717-11.715-30.71-11.715-42.427 0-11.715 11.717-11.715 30.712 0 42.427l42.345 42.345-31.765 31.752c-2.813 2.813-4.395 6.621-4.395 10.605s1.582 7.793 4.395 10.605l42.612 42.598c2.929 2.931 6.767 4.396 10.605 4.396s7.676-1.465 10.605-4.395l31.752-31.752 42.338 42.339c11.715 11.715 30.71 11.715 42.426 0 11.717-11.717 11.717-30.712 0-42.427zm69.853-282.294l-91.066 91.376 63.64 63.64 91.066-91.378zm190.919 63.639L269.713 51.212c-11.715-11.715-30.711-11.715-42.426 0-11.717 11.717-11.717 30.71 0 42.427l190.919 190.919c11.715 11.715 30.71 11.715 42.426 0 11.717-11.715 11.717-30.71 0-42.427zM284.714 418.36L93.794 227.44c-11.715-11.715-30.71-11.715-42.425 0-11.717 11.717-11.717 30.712 0 42.427l190.919 190.919c11.715 11.715 30.71 11.715 42.426 0 11.717-11.715 11.717-30.71 0-42.426z"/></symbol><symbol viewBox="0 -32 512 512" id="17" xmlns="http://www.w3.org/2000/svg"><path d="M342.383 239.352c-23.04-35.942-62.278-57.403-104.965-57.403s-81.926 21.461-104.961 57.403l-55.516 86.605c-9.21 14.367-13.46 30.969-12.293 47.996 1.168 17.031 7.649 32.89 18.739 45.875 11.097 12.973 25.761 21.84 42.406 25.645 16.644 3.804 33.707 2.18 49.34-4.692l1.047-.465c39.336-16.945 84.285-16.789 123.52.465 10.12 4.45 20.843 6.7 31.663 6.7 5.883 0 11.801-.668 17.664-2.004 16.645-3.801 31.309-12.668 42.41-25.645 11.094-12.973 17.579-28.836 18.75-45.871 1.172-17.035-3.078-33.633-12.289-48.008zm-250.488-.114c16.515-6.343 29.062-19.652 35.328-37.476 5.965-16.961 5.476-36.11-1.38-53.922-6.859-17.8-19.335-32.332-35.132-40.922-16.594-9.02-34.824-10.488-51.313-4.133-33.171 12.754-48.394 53.746-33.93 91.399 11.555 29.968 38.505 48.886 65.75 48.886a57.316 57.316 0 0020.677-3.832zm107.718-67.851c41.469 0 75.207-38.438 75.207-85.684C274.82 38.445 241.082 0 199.613 0c-41.465 0-75.199 38.445-75.199 85.703 0 47.246 33.734 85.684 75.2 85.684zm129.883 21.051h.004a61.3 61.3 0 0019.367 3.128c30.242 0 59.715-22.011 70.961-55.84 6.477-19.472 6.05-40.062-1.2-57.972-7.585-18.75-21.644-32.36-39.589-38.324-17.95-5.965-37.36-3.477-54.66 7-16.527 10.007-29.192 26.246-35.66 45.718-13.653 41.079 4.64 84.274 40.777 96.29zm158.379-10l-.012-.012c-28.597-21.125-71.367-11.969-95.347 20.422-23.957 32.406-20.211 75.972 8.343 97.113 10.414 7.715 22.72 11.402 35.313 11.402 21.95 0 44.785-11.203 60.05-31.804 23.954-32.407 20.212-75.973-8.347-97.122zm0 0"/></symbol><symbol viewBox="0 0 512 512" id="18" xmlns="http://www.w3.org/2000/svg"><path d="M256 0C153.755 0 70.573 83.182 70.573 185.426c0 126.888 165.939 313.167 173.004 321.035 6.636 7.391 18.222 7.378 24.846 0 7.065-7.868 173.004-194.147 173.004-321.035C441.425 83.182 358.244 0 256 0zm0 278.719c-51.442 0-93.292-41.851-93.292-93.293S204.559 92.134 256 92.134s93.291 41.851 93.291 93.293-41.85 93.292-93.291 93.292z"/></symbol><symbol viewBox="0 0 492 492" id="19" xmlns="http://www.w3.org/2000/svg"><path d="M198.608 246.104L382.664 62.04c5.068-5.056 7.856-11.816 7.856-19.024 0-7.212-2.788-13.968-7.856-19.032l-16.128-16.12C361.476 2.792 354.712 0 347.504 0s-13.964 2.792-19.028 7.864L109.328 227.008c-5.084 5.08-7.868 11.868-7.848 19.084-.02 7.248 2.76 14.028 7.848 19.112l218.944 218.932c5.064 5.072 11.82 7.864 19.032 7.864 7.208 0 13.964-2.792 19.032-7.864l16.124-16.12c10.492-10.492 10.492-27.572 0-38.06L198.608 246.104z"/></symbol><symbol viewBox="0 0 384 384" id="2" xmlns="http://www.w3.org/2000/svg"><path d="M353.188 252.052c-23.51 0-46.594-3.677-68.469-10.906-10.719-3.656-23.896-.302-30.438 6.417l-43.177 32.594c-50.073-26.729-80.917-57.563-107.281-107.26l31.635-42.052c8.219-8.208 11.167-20.198 7.635-31.448-7.26-21.99-10.948-45.063-10.948-68.583C132.146 13.823 118.323 0 101.333 0h-70.52C13.823 0 0 13.823 0 30.813 0 225.563 158.438 384 353.188 384c16.99 0 30.813-13.823 30.813-30.813v-70.323c-.001-16.989-13.824-30.812-30.813-30.812z"/></symbol><symbol viewBox="0 0 492.004 492.004" id="20" xmlns="http://www.w3.org/2000/svg"><path d="M382.678 226.804L163.73 7.86C158.666 2.792 151.906 0 144.698 0s-13.968 2.792-19.032 7.86l-16.124 16.12c-10.492 10.504-10.492 27.576 0 38.064L293.398 245.9l-184.06 184.06c-5.064 5.068-7.86 11.824-7.86 19.028 0 7.212 2.796 13.968 7.86 19.04l16.124 16.116c5.068 5.068 11.824 7.86 19.032 7.86s13.968-2.792 19.032-7.86L382.678 265c5.076-5.084 7.864-11.872 7.848-19.088.016-7.244-2.772-14.028-7.848-19.108z"/></symbol><symbol viewBox="0 0 479.058 479.058" id="3" xmlns="http://www.w3.org/2000/svg"><path d="M434.146 59.882H44.912C20.146 59.882 0 80.028 0 104.794v269.47c0 24.766 20.146 44.912 44.912 44.912h389.234c24.766 0 44.912-20.146 44.912-44.912v-269.47c0-24.766-20.146-44.912-44.912-44.912zm0 29.941c2.034 0 3.969.422 5.738 1.159L239.529 264.631 39.173 90.982a14.902 14.902 0 015.738-1.159zm0 299.411H44.912c-8.26 0-14.971-6.71-14.971-14.971V122.615l199.778 173.141c2.822 2.441 6.316 3.655 9.81 3.655s6.988-1.213 9.81-3.655l199.778-173.141v251.649c-.001 8.26-6.711 14.97-14.971 14.97z"/></symbol><symbol viewBox="0 0 469.333 469.333" id="4" xmlns="http://www.w3.org/2000/svg"><path d="M170.667 336.6l64 64 64-64c-35.307-35.307-92.694-35.307-128 0zm-85.334-85.333L128 293.933c58.88-58.88 154.453-58.88 213.333 0L384 251.267c-82.453-82.454-216.213-82.454-298.667 0z"/><path d="M0 165.933L42.667 208.6c106.027-106.027 277.973-106.027 384 0l42.667-42.667C339.733 36.333 129.6 36.333 0 165.933z"/></symbol><symbol viewBox="0 0 512 512" id="5" xmlns="http://www.w3.org/2000/svg"><path d="M53.333 202.667h53.333a10.686 10.686 0 01-8.405-4.096c-2.027-2.581-2.731-5.952-1.941-9.152l6.635-26.517a31.95 31.95 0 0131.04-24.235h68.672c17.643 0 32 14.357 32 32V192c0 5.888-4.779 10.667-10.667 10.667h64c-5.888 0-10.667-4.779-10.667-10.667v-21.333c0-17.643 14.357-32 32-32h68.672a31.95 31.95 0 0131.04 24.235l6.635 26.517a10.606 10.606 0 01-1.941 9.152 10.687 10.687 0 01-8.405 4.096h53.333c5.888 0 10.667-4.779 10.667-10.667v-64c0-29.397-23.936-53.333-53.333-53.333H96c-29.397 0-53.333 23.936-53.333 53.333v64c0 5.888 4.778 10.667 10.666 10.667zM458.667 224H53.333C23.936 224 0 247.936 0 277.333v149.333c0 5.888 4.779 10.667 10.667 10.667s10.667-4.779 10.667-10.667v-32h469.333v32c0 5.888 4.779 10.667 10.667 10.667s10.667-4.779 10.667-10.667V277.333C512 247.936 488.064 224 458.667 224zm32 149.333H21.333V352h469.333v21.333z"/></symbol><symbol viewBox="0 0 192 192" id="6" xmlns="http://www.w3.org/2000/svg"><path d="M112 56H88v32h24a16 16 0 0016-16 16 16 0 00-16-16z"/><path d="M96 0a96 96 0 1096 96A96.108 96.108 0 0096 0zm16 112H88v48H64V32h48a40 40 0 010 80z"/></symbol><symbol viewBox="0 0 512 512" id="7" xmlns="http://www.w3.org/2000/svg"><path d="M96 160H53.333c-5.888 0-10.667 4.779-10.667 10.667s4.779 10.667 10.667 10.667H96c5.888 0 10.667-4.779 10.667-10.667S101.888 160 96 160z"/><path d="M436.843 188.779c-2.027-6.379-42.731-92.629-57.963-101.888C363.029 77.248 268.203 74.667 256 74.667s-107.029 2.581-122.88 12.224c-15.232 9.237-55.936 95.509-57.963 101.888-1.792 5.611 1.344 11.605 6.955 13.397 5.675 1.771 11.627-1.344 13.397-6.955 3.349-10.603 40.341-82.795 48.469-89.963C153.003 100.949 219.456 96 256 96s102.997 4.949 111.275 8.747c8.853 7.68 45.867 79.872 49.216 90.475a10.695 10.695 0 0010.176 7.445c1.067 0 2.155-.149 3.243-.491 5.589-1.792 8.725-7.787 6.933-13.397zM96 373.333c-4.992 0-9.003 3.499-10.155 8.128l-64.512-16.128v-2.667c0-5.888-4.779-10.667-10.667-10.667S0 356.779 0 362.667v42.667c0 17.643 14.357 32 32 32h42.667c17.643 0 32-14.357 32-32V384c0-5.888-4.779-10.667-10.667-10.667zM501.333 352c-5.888 0-10.667 4.779-10.667 10.667v2.667l-64.512 16.128c-1.152-4.629-5.163-8.128-10.155-8.128-5.888 0-10.667 4.779-10.667 10.667v21.333c0 17.643 14.357 32 32 32H480c17.643 0 32-14.357 32-32v-42.667c0-5.888-4.779-10.667-10.667-10.667z"/><path d="M458.667 160H416c-5.888 0-10.667 4.779-10.667 10.667s4.779 10.667 10.667 10.667h42.667c5.888 0 10.667-4.779 10.667-10.667S464.555 160 458.667 160zm52.501 100.629l-29.099 5.824c-3.584.555-75.221 10.88-93.376 10.88-2.603 2.069-4.949 15.765-4.672 28.587 65.024-3.072 115.648-7.147 116.459-7.211l11.499-1.557c-.022-14.144-.235-26.219-.811-36.523z"/><path d="M493.675 213.739c-4.779-1.387-7.275-4.864-12.011-11.947l-3.648-5.333c-6.379-8.896-18.709-9.28-30.635-9.621-3.584-.107-9.259-.277-11.947-.896a10.415 10.415 0 00-3.648-3.285C411.883 171.712 336.469 160 256 160s-155.883 11.712-175.787 22.656a10.522 10.522 0 00-3.669 3.307c-2.688.619-8.363.789-11.947.896-11.904.341-24.235.704-30.613 9.6l-3.648 5.355c-4.736 7.083-7.232 10.56-12.011 11.947-8.363 2.453-12.949 11.029-15.488 26.624l21.077 5.269c.341 0 69.931 10.347 93.419 10.347 8.064 0 15.168 3.072 20.544 8.875 11.307 12.224 11.84 33.643 11.563 41.984 34.325 1.429 71.381 2.475 106.56 2.475 35.221 0 72.299-1.045 106.667-2.475-.235-9.429.299-33.045 10.859-44.203 4.139-4.352 9.365-6.656 15.168-6.656 13.803 0 69.504-7.616 89.792-10.56l30.528-6.123c-2.561-14.955-7.147-23.19-15.339-25.579zM330.667 288H181.333c-5.888 0-10.667-4.779-10.667-10.667s4.779-10.667 10.667-10.667h149.333c5.888 0 10.667 4.779 10.667 10.667S336.555 288 330.667 288zm172.074 31.915c-1.856.149-133.845 10.752-246.741 10.752S11.115 320.064 9.813 319.979l-9.259-.96c1.152 23.147 4.715 57.856 15.765 63.744 11.52 6.123 144.789 11.904 239.68 11.904s228.16-5.781 239.659-11.925c11.093-5.909 14.656-40.853 15.787-64l-8.704 1.173z"/><path d="M122.197 279.339c-1.323-1.429-2.731-2.005-4.864-2.005-25.173 0-94.635-10.347-97.579-10.773L.746 261.825C.213 271.936.021 283.776 0 297.493l11.755 1.216c.683.064 51.285 4.117 116.309 7.211.213-7.701-.811-21.12-5.867-26.581z"/></symbol><symbol viewBox="0 0 512 512" id="8" xmlns="http://www.w3.org/2000/svg"><path d="M495.718 1.582c-7.456-3.691-16.421-.703-20.142 6.694l-136.92 274.08-26.818-13.433c-22.207-11.118-49.277-2.065-60.396 20.083l-6.713 13.405 160.957 80.616 6.713-13.411c11.087-22.143 2.227-49.18-20.083-60.381L365.493 295.8 502.412 21.723c3.706-7.412.703-16.421-6.694-20.141z"/><circle cx="173" cy="497" r="15"/><circle cx="23" cy="407" r="15"/><circle cx="83" cy="437" r="15"/><path d="M113 482H53c-8.276 0-15-6.724-15-15 0-8.291-6.709-15-15-15s-15 6.709-15 15c0 24.814 20.186 45 45 45h60c8.291 0 15-6.709 15-15s-6.709-15-15-15zm-4.365-93.926a14.998 14.998 0 00-12.92 12.349c-1.113 6.519 2.153 12.993 8.057 15.952l71.675 35.889c12.935 6.475 27.231 9.053 41.177 7.573-1.641 6.65 1.479 13.784 7.852 16.992l67.061 33.589c5.636 2.78 12.169 1.8 16.685-2.197 2.347-2.091 53.436-48.056 83.3-98.718l-161.605-80.94c-36.208 48.109-120.363 59.39-121.282 59.511z"/></symbol><symbol viewBox="0 0 341.333 341.333" id="9" xmlns="http://www.w3.org/2000/svg"><path d="M0 277.333h341.333V320H0zm0-128h341.333V192H0zm0-128h341.333V64H0z"/></symbol></svg>