<?xml version="1.0" encoding="utf-8"?><svg xmlns="http://www.w3.org/2000/svg" xmlns:xlink="http://www.w3.org/1999/xlink"><symbol viewBox="0 0 52 52" id="1" xmlns="http://www.w3.org/2000/svg"><path d="M26 0C11.664 0 0 11.663 0 26s11.664 26 26 26 26-11.663 26-26S40.336 0 26 0zm0 50C12.767 50 2 39.233 2 26S12.767 2 26 2s24 10.767 24 24-10.767 24-24 24z"/><path d="M38.252 15.336l-15.369 17.29-9.259-7.407a1 1 0 00-1.249 1.562l10 8a.999.999 0 001.373-.117l16-18a1 1 0 10-1.496-1.328z"/></symbol><symbol viewBox="0 0 511.962 511.962" id="2" xmlns="http://www.w3.org/2000/svg"><path d="M507.399 370.471c-1.376-2.304-9.888-20.8-50.848-58.816-42.88-39.808-37.12-33.344 14.528-102.176 31.456-41.92 44.032-67.52 40.096-78.464-3.744-10.432-26.88-7.68-26.88-7.68l-76.928.448s-5.696-.768-9.952 1.76c-4.128 2.496-6.784 8.256-6.784 8.256s-12.192 32.448-28.448 60.032c-34.272 58.208-48 61.28-53.6 57.664-13.024-8.416-9.76-33.856-9.76-51.904 0-56.416 8.544-79.936-16.672-86.016-8.384-2.016-14.528-3.36-35.936-3.584-27.456-.288-50.72.096-63.872 6.528-8.768 4.288-15.52 13.856-11.392 14.4 5.088.672 16.608 3.104 22.72 11.424 7.904 10.72 7.616 34.848 7.616 34.848s4.544 66.4-10.592 74.656c-10.4 5.664-24.64-5.888-55.2-58.72-15.648-27.04-27.488-56.96-27.488-56.96s-2.272-5.568-6.336-8.544c-4.928-3.616-11.84-4.768-11.84-4.768l-73.152.448s-10.976.32-15.008 5.088c-3.584 4.256-.288 13.024-.288 13.024s57.28 133.984 122.112 201.536c59.488 61.92 127.008 57.856 127.008 57.856h30.592s9.248-1.024 13.952-6.112c4.352-4.672 4.192-13.44 4.192-13.44s-.608-41.056 18.464-47.104c18.784-5.952 42.912 39.68 68.48 57.248 19.328 13.28 34.016 10.368 34.016 10.368l68.384-.96s35.776-2.208 18.816-30.336z"/></symbol><symbol viewBox="0 0 24 24" id="3" xmlns="http://www.w3.org/2000/svg"><path d="M12 .5C5.37.5 0 5.78 0 12.292c0 5.211 3.438 9.63 8.205 11.188.6.111.82-.254.82-.567 0-.28-.01-1.022-.015-2.005-3.338.711-4.042-1.582-4.042-1.582-.546-1.361-1.335-1.725-1.335-1.725-1.087-.731.084-.716.084-.716 1.205.082 1.838 1.215 1.838 1.215 1.07 1.803 2.809 1.282 3.495.981.108-.763.417-1.282.76-1.577-2.665-.295-5.466-1.309-5.466-5.827 0-1.287.465-2.339 1.235-3.164-.135-.298-.54-1.497.105-3.121 0 0 1.005-.316 3.3 1.209.96-.262 1.98-.392 3-.398 1.02.006 2.04.136 3 .398 2.28-1.525 3.285-1.209 3.285-1.209.645 1.624.24 2.823.12 3.121.765.825 1.23 1.877 1.23 3.164 0 4.53-2.805 5.527-5.475 5.817.42.354.81 1.077.81 2.182 0 1.578-.015 2.846-.015 3.229 0 .309.21.678.825.56C20.565 21.917 24 17.495 24 12.292 24 5.78 18.627.5 12 .5z"/></symbol><symbol viewBox="0 0 512 512" id="4" xmlns="http://www.w3.org/2000/svg"><path d="M0 160h114.496v352H0zm426.368 4.128c-1.216-.384-2.368-.8-3.648-1.152a74.218 74.218 0 00-4.64-.896c-6.08-1.216-12.736-2.08-20.544-2.08-66.752 0-109.088 48.544-123.04 67.296V160H160v352h114.496V320s86.528-120.512 123.04-32v224H512V274.464c0-53.184-36.448-97.504-85.632-110.336z"/><circle cx="56" cy="56" r="56"/></symbol><symbol viewBox="0 0 24 24" id="5" xmlns="http://www.w3.org/2000/svg"><path d="M8.75 17.612v4.638a.751.751 0 001.354.444l2.713-3.692zM23.685.139a.75.75 0 00-.782-.054l-22.5 11.75a.752.752 0 00.104 1.375l6.255 2.138 13.321-11.39L9.775 16.377l10.483 3.583a.753.753 0 00.984-.599l2.75-18.5a.751.751 0 00-.307-.722z"/></symbol></svg>