<svg xmlns="http://www.w3.org/2000/svg" xmlns:xlink="http://www.w3.org/1999/xlink" version="1.1" x="0px" y="0px" width="128px" height="128px" viewBox="0 0 128 128" xml:space="preserve" class="js-svg js-svg-replaced">
	<rect x="1.92" y="1.92" width="124.16" height="124.16" style="stroke: rgb(226, 250, 177); fill: none; stroke-alignment: inside; stroke-width: 3.84" rx="62.08" ry="62.08"></rect>
	<g transform="scale(0.68) translate(30.117647058823522, 30.117647058823522)">
		<path fill="#e2fab1" d="M100.048,78.337c-1.58-3.812-5.635-9.721-12.283-14.866c-1.711-1.325-3.784-2.735-6.179-4.023 c-1.186-12.426-4.138-23.795-7.343-32.561l-0.016,0.005c-2.667,0.586-5.986,1.051-9.812,1.051c-4.039,0-7.602-0.518-10.449-1.149 l0,0c-3.186,8.685-6.127,19.95-7.343,32.312c-2.431,1.235-4.53,2.594-6.258,3.868c-6.737,4.974-10.811,10.78-12.375,14.557 c-1.173,2.834-1.196,5.019-0.063,6.151c0.922,0.921,2.017,1.35,3.446,1.35c1.727,0,3.787-0.61,6.639-1.454 c2.325-0.688,5.17-1.529,8.671-2.26c0.46,3.197,0.996,4.594,0.996,4.594s6.876,3.668,16.696,3.668 c9.821,0,16.139-3.668,16.139-3.668s0.536-1.445,0.991-4.723c3.787,0.714,6.862,1.546,9.362,2.225 c2.837,0.769,4.887,1.324,6.504,1.325h0.002c1.251,0,2.171-0.336,2.894-1.058C101.189,82.759,101.113,80.911,100.048,78.337z M64.097,52.162c-4.76,0-8.619-3.858-8.619-8.619s3.859-8.62,8.619-8.62s8.619,3.859,8.619,8.62S68.856,52.162,64.097,52.162z"></path>
		<polygon fill="#e2fab1" points="53.966,26.794 53.966,26.794 53.968,26.788 "></polygon>
		<path fill="#e2fab1" d="M54.518,23.729c2.751,0.577,6.114,1.031,9.896,1.031c3.574,0,6.708-0.406,9.279-0.937c0.01-0.002,0.021-0.004,0.03-0.006 c-1.868-5.387-3.834-9.613-5.599-12.396c-0.006-0.008-0.011-0.016-0.015-0.024c-0.095-0.148-0.188-0.291-0.281-0.431 c-0.013-0.019-0.026-0.039-0.038-0.058c-0.087-0.129-0.173-0.254-0.257-0.375c-0.02-0.027-0.039-0.055-0.059-0.082 c-0.078-0.114-0.158-0.223-0.236-0.329c-0.025-0.032-0.048-0.064-0.072-0.096c-0.074-0.099-0.148-0.195-0.222-0.288 c-0.027-0.035-0.055-0.069-0.082-0.103c-0.069-0.087-0.138-0.17-0.206-0.252c-0.031-0.036-0.062-0.071-0.092-0.107 c-0.064-0.075-0.129-0.148-0.192-0.217c-0.033-0.037-0.066-0.072-0.1-0.107c-0.061-0.064-0.121-0.127-0.179-0.188 c-0.036-0.036-0.071-0.069-0.106-0.104c-0.057-0.055-0.112-0.108-0.168-0.158c-0.037-0.034-0.074-0.065-0.11-0.097 c-0.052-0.046-0.104-0.091-0.156-0.132c-0.038-0.032-0.076-0.06-0.115-0.089c-0.048-0.037-0.097-0.074-0.144-0.107 c-0.041-0.028-0.079-0.052-0.12-0.078c-0.044-0.028-0.09-0.058-0.133-0.084c-0.041-0.023-0.081-0.044-0.123-0.065 c-0.04-0.021-0.081-0.043-0.121-0.062c-0.043-0.02-0.085-0.034-0.127-0.05c-0.037-0.014-0.073-0.029-0.108-0.041 c-0.048-0.015-0.094-0.024-0.142-0.035c-0.028-0.006-0.057-0.015-0.084-0.02c-0.072-0.012-0.143-0.018-0.211-0.019h-0.005H64.12 c-0.005,0-0.01,0.001-0.014,0.001c0,0-0.007-0.001-0.01-0.001c-0.021,0-0.045,0.005-0.067,0.007 c-0.042,0.003-0.085,0.004-0.129,0.012c-0.022,0.003-0.047,0.011-0.07,0.017c-0.053,0.01-0.104,0.021-0.157,0.038 c-0.029,0.009-0.061,0.022-0.09,0.034c-0.05,0.018-0.098,0.035-0.148,0.057c-0.033,0.015-0.067,0.034-0.101,0.05 c-0.049,0.024-0.096,0.047-0.146,0.076c-0.037,0.021-0.073,0.045-0.11,0.068c-0.048,0.03-0.096,0.06-0.146,0.093 c-0.039,0.026-0.078,0.057-0.118,0.086C62.767,8.195,62.72,8.23,62.67,8.27c-0.042,0.033-0.084,0.069-0.126,0.104 c-0.048,0.041-0.096,0.082-0.146,0.125c-0.043,0.04-0.089,0.082-0.133,0.124c-0.047,0.045-0.097,0.092-0.144,0.14 c-0.048,0.046-0.094,0.094-0.141,0.144c-0.049,0.05-0.097,0.1-0.145,0.153c-0.049,0.053-0.099,0.108-0.147,0.164 c-0.048,0.054-0.095,0.108-0.145,0.165c-0.051,0.061-0.103,0.123-0.154,0.187c-0.047,0.057-0.093,0.115-0.141,0.174 c-0.055,0.069-0.109,0.139-0.163,0.21c-0.046,0.06-0.092,0.121-0.139,0.183c-0.057,0.076-0.115,0.154-0.172,0.233 c-0.045,0.062-0.089,0.124-0.133,0.188c-0.061,0.086-0.121,0.173-0.183,0.263c-0.042,0.061-0.085,0.124-0.127,0.188 c-0.063,0.096-0.128,0.193-0.193,0.293c-0.038,0.061-0.079,0.123-0.118,0.185c-0.068,0.108-0.137,0.216-0.205,0.328 c-0.036,0.057-0.071,0.117-0.107,0.175c-0.074,0.122-0.147,0.244-0.222,0.369c-0.029,0.05-0.06,0.103-0.089,0.154 c-0.08,0.138-0.161,0.277-0.243,0.421c-0.021,0.036-0.04,0.074-0.062,0.111c-0.092,0.162-0.181,0.325-0.272,0.494 c-0.005,0.008-0.01,0.018-0.014,0.026c-0.663,1.224-1.343,2.626-2.025,4.193c-0.097,0.224-0.195,0.451-0.292,0.681 c-0.003,0.008-0.007,0.016-0.01,0.024c-0.104,0.244-0.206,0.491-0.309,0.742c-0.012,0.028-0.024,0.056-0.035,0.084 c-0.097,0.236-0.193,0.478-0.291,0.722c-0.018,0.045-0.035,0.088-0.053,0.133c-0.092,0.233-0.185,0.47-0.276,0.708 c-0.022,0.058-0.045,0.116-0.066,0.174c-0.089,0.23-0.178,0.465-0.266,0.701c-0.026,0.069-0.052,0.139-0.077,0.209 c-0.086,0.229-0.171,0.462-0.255,0.698c-0.03,0.08-0.059,0.16-0.088,0.239c-0.081,0.229-0.164,0.461-0.245,0.695 c-0.018,0.049-0.035,0.096-0.053,0.146h0.002C54.485,23.722,54.502,23.725,54.518,23.729z"></path>
		<path fill="#e2fab1" d="M64.097,36.77c-3.741,0-6.773,3.032-6.773,6.774c0,3.741,3.032,6.774,6.773,6.774s6.773-3.033,6.773-6.774 C70.87,39.802,67.838,36.77,64.097,36.77z M60.54,46.284c-1.738-1.739-1.738-4.559,0-6.298c1.739-1.739,4.558-1.739,6.298,0 C68.576,41.726,62.279,48.023,60.54,46.284z"></path>
		<path fill="#e2fab1" d="M64.363,91.791c-5.016,0.004-10.046,1.149-10.046,3.618c0,4.945,9.963,24.969,9.963,24.969s10.128-20.157,10.128-24.969 C74.408,92.934,69.394,91.788,64.363,91.791z"></path>
	</g>
</svg>