<svg xmlns="http://www.w3.org/2000/svg" xmlns:xlink="http://www.w3.org/1999/xlink" version="1.1" x="0px" y="0px" width="128px" height="128px" viewBox="0 0 128 128" xml:space="preserve" class="js-svg js-svg-replaced">
	<rect x="1.92" y="1.92" width="124.16" height="124.16" style="stroke: rgb(226, 250, 177); fill: none; stroke-alignment: inside; stroke-width: 3.84" rx="62.08" ry="62.08"></rect>
	<g transform="scale(0.6) translate(42.66666666666667, 42.66666666666667)">
		<path fill="#e2fab1" d="M118.582,35.55c-0.729-1.901-2.123-3.945-3.93-5.758c-2.777-2.776-6.045-4.502-8.528-4.502 c-1.544,0-2.5,0.63-3.032,1.16l-2.878,2.879L59.312,70.24c-0.009,0.009-0.015,0.02-0.023,0.028 c-0.027,0.029-0.05,0.062-0.075,0.093c-0.082,0.095-0.153,0.194-0.214,0.3c-0.023,0.041-0.045,0.082-0.065,0.124 c-0.059,0.121-0.105,0.245-0.138,0.374c-0.006,0.022-0.019,0.041-0.023,0.063l-2.448,11.073c0,0.001,0,0.002,0,0.003l-0.985,4.421 c-0.148,0.667,0.054,1.364,0.537,1.849c0.38,0.379,0.891,0.586,1.415,0.586c0.145,0,0.289-0.016,0.434-0.048l4.42-0.981h0.004 l11.079-2.448c0.022-0.005,0.041-0.018,0.062-0.023c0.129-0.032,0.254-0.079,0.375-0.138c0.042-0.021,0.083-0.041,0.123-0.064 c0.106-0.062,0.207-0.135,0.304-0.217c0.029-0.025,0.061-0.046,0.088-0.072c0.01-0.009,0.021-0.016,0.03-0.024l40.9-40.905h0.001 v-0.001l2.876-2.88C118.749,40.593,119.838,38.831,118.582,35.55z M105.863,29.323c0,0,0.073-0.032,0.261-0.032 c1.141,0,3.411,1.043,5.698,3.329c2.884,2.893,3.528,5.433,3.339,5.902l-1.465,1.467l-9.244-9.249L105.863,29.323z M62.358,83.982 l-1.891-1.893l1.424-6.442l6.911,6.91L62.358,83.982z"></path>
		<path fill="#e2fab1" d="M96.381,69.748c-1.657,0-3,1.343-3,3v39.821H14.844V15.43h78.537v6.758c0,1.657,1.343,3,3,3s3-1.343,3-3V12.43 c0-1.656-1.343-3-3-3H11.844c-1.657,0-3,1.344-3,3v103.139c0,1.657,1.343,3,3,3h84.537c1.657,0,3-1.343,3-3V72.748 C99.381,71.09,98.038,69.748,96.381,69.748z"></path>
		<path fill="#e2fab1" d="M76.843,40.277c0-1.104-0.896-2-2-2H31.109c-1.104,0-2,0.896-2,2s0.896,2,2,2h43.733 C75.947,42.277,76.843,41.381,76.843,40.277z"></path>
		<path fill="#e2fab1" d="M55.343,62.277c0-1.104-0.896-2-2-2H31.109c-1.104,0-2,0.896-2,2s0.896,2,2,2h22.233 C54.447,64.277,55.343,63.381,55.343,62.277z"></path>
		<path fill="#e2fab1" d="M31.109,81.777c-1.104,0-2,0.896-2,2s0.896,2,2,2h11.733c1.104,0,2-0.896,2-2s-0.896-2-2-2H31.109z"></path>
	</g>
</svg>