<svg xmlns="http://www.w3.org/2000/svg" xmlns:xlink="http://www.w3.org/1999/xlink" version="1.1" x="0px" y="0px" width="128px" height="128px" viewBox="0 0 128 128" xml:space="preserve" class="js-svg js-svg-replaced">
	<rect x="1.92" y="1.92" width="124.16" height="124.16" style="stroke: rgb(226, 250, 177); fill: none; stroke-alignment: inside; stroke-width: 3.84" rx="62.08" ry="62.08"></rect>
	<g transform="scale(0.6) translate(42.66666666666667, 42.66666666666667)">
		<path fill="#e2fab1" d="M77.191,103.794H26.466V26.276h50.725v7.462h3.964V19.671c0-7.166-3.645-10.812-10.811-10.812h-36.76 c-7.166,0-10.814,3.646-10.814,10.812v88.656c0,7.166,3.648,10.812,10.814,10.812h36.76c7.166,0,10.811-3.646,10.811-10.812V76.572 h-3.964V103.794z M42.07,15.34h19.793c1.233,0,2.232,0.999,2.232,2.232c0,1.235-0.999,2.237-2.232,2.237H42.07 c-1.234,0-2.239-1.002-2.239-2.237C39.831,16.339,40.836,15.34,42.07,15.34z"></path>
		<path fill="#e2fab1" d="M99.779,37.266H81.155h-3.964H58.457c-3.009,0-5.45,2.439-5.45,5.45v24.067c0,3.008,2.44,5.448,5.45,5.448h1.163 l3.072,4.341l2.121,2.995c0.426,0.426,1.119,0.426,1.547,0l2.12-2.995l3.07-4.341h5.642h3.964h18.624c3.008,0,5.45-2.44,5.45-5.448 V42.716C105.229,39.705,102.788,37.266,99.779,37.266z M95.092,63.444H81.155h-3.964H65.595c-0.994,0-1.8-0.806-1.8-1.799 c0-0.994,0.806-1.798,1.8-1.798h11.596h3.964h13.937c0.995,0,1.798,0.804,1.798,1.798C96.89,62.638,96.086,63.444,95.092,63.444z M95.092,56.25H81.155h-3.964H65.595c-0.994,0-1.8-0.806-1.8-1.799c0-0.994,0.806-1.799,1.8-1.799h11.596h3.964h13.937 c0.995,0,1.798,0.806,1.798,1.799C96.89,55.444,96.086,56.25,95.092,56.25z M95.092,49.054H81.155h-3.964H65.595 c-0.994,0-1.8-0.804-1.8-1.798c0-0.994,0.806-1.799,1.8-1.799h11.596h3.964h13.937c0.995,0,1.798,0.805,1.798,1.799 C96.89,48.25,96.086,49.054,95.092,49.054z"></path>
	</g>
</svg>