<svg xmlns="http://www.w3.org/2000/svg" xmlns:xlink="http://www.w3.org/1999/xlink" version="1.1" x="0px" y="0px" width="128px" height="128px" viewBox="0 0 128 128" xml:space="preserve" class="js-svg js-svg-replaced">
	<rect x="1.92" y="1.92" width="124.16" height="124.16" style="stroke: rgb(226, 250, 177); fill: none; stroke-alignment: inside; stroke-width: 3.84" rx="62.08" ry="62.08"></rect>

	<g transform="scale(0.55) translate(52.36363636363636, 52.36363636363636)">
		<path fill="#e2fab1" d="M108.979,5.845H19.025c-3.36,0-6.084,2.722-6.084,6.08v104.147c0,3.36,2.724,6.083,6.084,6.083h89.953 c3.358,0,6.078-2.723,6.078-6.083V11.925C115.057,8.566,112.337,5.845,108.979,5.845z M105.496,38.379c0,0-8.89-3.409-19.073-6.384 v-3.402c-6.097-1.194-14.76-2.564-22.4-2.564c-7.636,0-16.343,1.368-22.486,2.562v3.405c-10.185,2.975-19.071,6.384-19.071,6.384 l4.385-5.948l-4.385-2.659c0,0,4.661-1.794,11.096-3.914v-4.133c0,0,16.791-4.303,30.462-4.303s30.292,4.303,30.292,4.303v4.104 c6.478,2.132,11.182,3.942,11.182,3.942l-4.387,2.659L105.496,38.379z M95.782,53.411c0.938,0,1.703,0.765,1.703,1.701 c0,0.942-0.765,1.703-1.703,1.703h-64.42c-0.938,0-1.698-0.761-1.698-1.703c0-0.937,0.76-1.701,1.698-1.701H95.782z M37.927,46.399 c0-1.199,0.977-2.175,2.177-2.175h46.941c1.2,0,2.175,0.976,2.175,2.175c0,1.205-0.975,2.177-2.175,2.177H40.104 C38.903,48.576,37.927,47.604,37.927,46.399z M31.362,60.883h64.42c0.938,0,1.703,0.763,1.703,1.702s-0.765,1.701-1.703,1.701 h-64.42c-0.938,0-1.698-0.761-1.698-1.701S30.424,60.883,31.362,60.883z M31.362,68.352h64.42c0.938,0,1.703,0.764,1.703,1.703 c0,0.94-0.765,1.701-1.703,1.701h-64.42c-0.938,0-1.698-0.761-1.698-1.701C29.664,69.116,30.424,68.352,31.362,68.352z M31.362,76.017h64.42c0.938,0,1.703,0.764,1.703,1.703c0,0.94-0.765,1.701-1.703,1.701h-64.42c-0.938,0-1.698-0.761-1.698-1.701 C29.664,76.781,30.424,76.017,31.362,76.017z M53.026,96.846l1.481-2.567l0.044-2.963l2.466-1.38l1.408-2.446h2.967l2.589-1.445 l2.423,1.445h2.826l1.482,2.569l2.546,1.516l-0.041,2.824l1.414,2.447l-1.48,2.565l-0.045,2.965l-2.464,1.379L69.23,106.2h-2.963 l-2.587,1.447l-2.429-1.447h-2.826l-1.479-2.567l-2.546-1.516l0.039-2.825L53.026,96.846z M31.362,102.904h17.439 c0.936,0,1.698,0.76,1.698,1.701s-0.763,1.704-1.698,1.704H31.362c-0.938,0-1.698-0.763-1.698-1.704S30.424,102.904,31.362,102.904z M96.157,106.309H78.722c-0.939,0-1.702-0.763-1.702-1.704s0.763-1.701,1.702-1.701h17.436c0.935,0,1.701,0.76,1.701,1.701 S97.092,106.309,96.157,106.309z"></path>
	</g>
</svg>