<svg xmlns="http://www.w3.org/2000/svg" xmlns:xlink="http://www.w3.org/1999/xlink" version="1.1" x="0px" y="0px" width="128px" height="128px" viewBox="0 0 128 128" xml:space="preserve" class="js-svg js-svg-replaced">
	<rect x="1.92" y="1.92" width="124.16" height="124.16" style="stroke: rgb(226, 250, 177); fill: none; stroke-alignment: inside; stroke-width: 3.84" rx="62.08" ry="62.08"></rect>
	<g transform="scale(0.73) translate(23.671232876712327, 23.671232876712327)">
		<path fill="#e2fab1" d="M88.989,84.095c0.003-0.086-5.125-2.769-5.125-6.556l0.091-16.331c-5.125,3.936-12.187,6.368-19.984,6.368 c-7.823,0-14.905-2.448-20.035-6.406l0.046,16.369c0,3.787-5.034,6.375-5.033,6.433c-4.367,3.493-6.077,11.041-4.837,16.982 c1.542,7.391,7.059,9.493,14.083,8.029c2.73-0.569,5.284-1.597,7.298-3.07c2.648,0.607,5.502,0.88,8.479,0.88 c2.932,0,5.746-0.265,8.361-0.854c2.008,1.46,4.548,2.478,7.262,3.044c7.024,1.464,12.542-0.639,14.083-8.029 C94.902,95.082,93.245,87.639,88.989,84.095z M47.768,106.039c-5.497,1.146-9.816-0.5-11.023-6.284 c-1.206-5.786,1.157-13.521,6.653-14.665c5.5-1.148,12.048,4.727,13.256,10.512C57.862,101.386,53.267,104.891,47.768,106.039z M91.044,99.754c-1.207,5.784-5.525,7.43-11.022,6.284c-5.499-1.147-10.094-4.652-8.887-10.438 c1.208-5.785,7.757-11.66,13.256-10.512C89.889,86.234,92.25,93.968,91.044,99.754z"></path>

		<path fill="#e2fab1" d="M42.25,77.534c0.143-0.502,0.128-16.373,0.128-16.373c-1.008,0.337-13.159,5.208-15.431,12.045 c-1.508,4.539,1.449,9.303,5.675,10.499C36.849,84.9,40.949,82.136,42.25,77.534z"></path>

		<path fill="#e2fab1" d="M101.017,73.206C99.033,67.234,89.68,63.071,86.51,61.577c-0.459-0.216-0.776-0.352-0.903-0.394 c0,0-0.035,15.849,0.107,16.351c1.301,4.603,5.783,7.366,10.009,6.171c0.242-0.068,0.478-0.15,0.708-0.241 C100.231,81.962,102.439,77.485,101.017,73.206z"></path>

		<path fill="#e2fab1" d="M36.712,37.808c-0.711,1.919-1.092,3.945-1.092,6.041c0,0.139,0.003,0.277,0.007,0.416 c0.288,11.907,12.867,21.491,28.345,21.491s28.058-9.584,28.345-21.491c0.003-0.139,0.007-0.277,0.007-0.416 c0-2.098-0.382-4.126-1.094-6.047c1.502-0.796,2.714-1.968,3.464-3.483c2.353-4.755-0.728-11.078-6.881-14.123 c-6.011-2.977-12.73-1.72-15.231,2.773c-2.716-0.668-5.608-1.029-8.61-1.029c-3.006,0-5.903,0.362-8.622,1.032 c-2.5-4.496-9.22-5.754-15.233-2.776c-6.154,3.045-9.234,9.368-6.881,14.123C33.988,35.838,35.205,37.012,36.712,37.808z M72.165,58.622c-0.089,0.1-0.898,0.989-1.98,1.311c-0.332,0.098-0.865,0.178-1.495,0.178c-1.112,0-2.525-0.25-3.654-1.093 c-0.353-0.264-0.732-0.632-1.062-1.131c-0.33,0.499-0.708,0.867-1.062,1.131c-1.129,0.843-2.542,1.093-3.654,1.093 c-0.63,0-1.164-0.08-1.495-0.178c-1.082-0.321-1.891-1.211-1.98-1.311c-0.314-0.355-0.281-0.898,0.075-1.213 c0.354-0.313,0.896-0.28,1.21,0.072c0.154,0.171,0.668,0.65,1.184,0.803c0.508,0.15,2.389,0.285,3.633-0.644 c0.723-0.54,1.135-1.386,1.229-2.517c-0.011-0.166-0.018-0.336-0.018-0.514c0-0.072,0.011-0.141,0.028-0.208 c-1.748-0.986-5.595-3.398-5.595-5.523c0-2.75,2.884-3.977,6.443-3.977s6.443,1.227,6.443,3.977c0,2.124-3.842,4.534-5.592,5.522 c0.017,0.066,0.029,0.136,0.029,0.209c0,0.178-0.007,0.348-0.018,0.514c0.093,1.131,0.505,1.977,1.228,2.517 c1.245,0.929,3.125,0.794,3.633,0.644c0.523-0.154,1.042-0.643,1.182-0.801c0.314-0.354,0.858-0.388,1.213-0.074 C72.445,57.723,72.479,58.266,72.165,58.622z M86.571,22.704c4.361,2.157,6.546,6.64,4.878,10.01 c-0.399,0.807-0.985,1.476-1.703,1.998c-2.771-4.66-7.595-8.439-13.579-10.646C78.178,21.379,82.593,20.733,86.571,22.704z M74.997,32.568c2.071,0,3.75,1.533,3.75,3.426s-1.679,3.426-3.75,3.426c-2.07,0-3.75-1.533-3.75-3.426 S72.927,32.568,74.997,32.568z M79.447,52.209c0,0.21-0.007,0.418-0.021,0.625c-0.421-6.4-7.27-10.508-15.658-10.508 s-15.237,4.107-15.659,10.508c-0.013-0.207-0.021-0.415-0.021-0.625c0-6.691,7.02-13.049,15.679-13.049 S79.447,45.518,79.447,52.209z M56.409,35.994c0,1.893-1.68,3.426-3.75,3.426c-2.071,0-3.75-1.533-3.75-3.426 s1.679-3.426,3.75-3.426C54.729,32.568,56.409,34.101,56.409,35.994z M41.229,22.442c4.185-2.071,8.832-1.368,10.904,1.495 c-6.286,2.235-11.331,6.195-14.122,11.096c-0.791-0.555-1.434-1.276-1.868-2.152C34.404,29.366,36.681,24.693,41.229,22.442z"></path>
	</g>
</svg>