<svg xmlns="http://www.w3.org/2000/svg" xmlns:xlink="http://www.w3.org/1999/xlink" version="1.1" x="0px" y="0px" width="128px" height="128px" viewBox="0 0 128 128" xml:space="preserve" class="js-svg js-svg-replaced">
	<rect x="1.92" y="1.92" width="124.16" height="124.16" style="stroke: rgb(226, 250, 177); fill: none; stroke-alignment: inside; stroke-width: 3.84" rx="62.08" ry="62.08"></rect>

	<g transform="scale(0.6) translate(42.66666666666667, 42.66666666666667)">
		<path fill="#e2fab1" d="M99.924,29.858c-5.268,0.353-9.948,0.022-14.043-0.725C71.454,26.505,64.253,18.815,64.02,18.559 c0-0.014-0.001-0.031-0.001-0.031l-0.015,0.015l-0.016-0.015c0,0,0,0.017,0,0.031c-0.315,0.345-13.239,14.166-39.448,10.972 c0,29.991,0,38.836,0,38.836c-0.152,2.532,1.399,8.804,6.129,15.978c1.744,2.646,3.921,5.411,6.606,8.159 c6.196,6.341,15.087,12.581,27.609,16.969c37.304-15.812,38.585-41.105,38.585-41.105s0-8.845,0-38.836 C102.255,29.68,101.081,29.779,99.924,29.858z M76.711,81.408l-12.604-6.626l-12.603,6.626l2.408-14.034l-10.197-9.938l14.09-2.049 l6.302-12.766l6.302,12.766l14.089,2.049l-10.196,9.938L76.711,81.408z"></path>
	</g>
</svg>