<svg xmlns="http://www.w3.org/2000/svg" xmlns:xlink="http://www.w3.org/1999/xlink" version="1.1" x="0px" y="0px" width="128px" height="128px" viewBox="0 0 128 128" xml:space="preserve" class="js-svg js-svg-replaced">
	<rect x="1.92" y="1.92" width="124.16" height="124.16" style="stroke: rgb(226, 250, 177); fill: none; stroke-alignment: inside; stroke-width: 3.84" rx="62.08" ry="62.08"></rect>

	<g transform="scale(0.6) translate(42.66666666666667, 42.66666666666667)">
		<path fill="#e2fab1" d="M63.999,6.842C32.433,6.842,6.842,32.43,6.842,64c0,31.566,25.591,57.158,57.157,57.158 c31.568,0,57.159-25.592,57.159-57.158C121.158,32.43,95.567,6.842,63.999,6.842z M63.999,111.683 c-26.333,0-47.681-21.35-47.681-47.683c0-26.337,21.348-47.683,47.681-47.683c26.335,0,47.683,21.346,47.683,47.683 C111.681,90.333,90.333,111.683,63.999,111.683z"></path>

		<path fill="#e2fab1" d="M39.854,71.307c0.54,0.517,1.248,0.801,1.999,0.801s1.458-0.284,2-0.802C45,70.378,60.917,57.393,60.917,48.927 c0-5.875-4.264-10.14-10.14-10.14c-3.408,0-6.575,1.662-8.479,4.445l-0.392,0.499l-0.262-0.335 c-1.882-2.885-5.054-4.609-8.498-4.609c-5.876,0-10.141,4.265-10.141,10.14C23.005,57.602,38.709,70.387,39.854,71.307z"></path>

		<path fill="#e2fab1" d="M95.293,38.787c-3.409,0-6.575,1.662-8.479,4.445l-0.393,0.499l-0.262-0.335c-1.882-2.885-5.054-4.609-8.498-4.609 c-5.876,0-10.141,4.265-10.141,10.14c0,8.675,15.705,21.46,16.849,22.38c0.541,0.517,1.249,0.801,2,0.801 c0.75,0,1.458-0.284,1.999-0.802c1.148-0.928,17.065-13.913,17.065-22.379C105.434,43.052,101.169,38.787,95.293,38.787z"></path>

		<path fill="#e2fab1" d="M91.146,80.793c-1.032,0-2.023,0.432-2.794,1.215c-6.528,6.644-15.173,10.303-24.34,10.304c-0.001,0-0.001,0-0.001,0 c-9.277,0-17.999-3.732-24.556-10.51c-0.77-0.796-1.765-1.233-2.802-1.233c-1.62,0-3.154,1.049-3.817,2.613 c-0.638,1.507-0.327,3.122,0.833,4.32c8.053,8.323,18.825,12.906,30.332,12.906c0.001,0,0,0,0,0 c11.387,0,22.083-4.504,30.117-12.679c1.17-1.191,1.492-2.801,0.86-4.309C94.318,81.849,92.778,80.793,91.146,80.793z"></path>
	</g>
</svg>