<svg xmlns="http://www.w3.org/2000/svg" xmlns:xlink="http://www.w3.org/1999/xlink" version="1.1" x="0px" y="0px" width="128px" height="128px" viewBox="0 0 128 128" xml:space="preserve" class="js-svg js-svg-replaced">
	<rect x="1.92" y="1.92" width="124.16" height="124.16" style="stroke: rgb(226, 250, 177); fill: none; stroke-alignment: inside; stroke-width: 3.84" rx="62.08" ry="62.08"></rect>

	<g transform="scale(0.6) translate(42.66666666666667, 42.66666666666667)">
		<path fill="#e2fab1" d="M78.186,63.947l3.691,1.807c2.765,1.352,5.301,2.009,7.753,2.009c4.01,0,7.762-1.688,11.471-5.159 c4.579-4.286,11.816-15.945,12.051-22.657c0.584-16.826-8.752-30.421-9.149-30.991c-0.61-0.875-1.646-1.365-2.699-1.274 c-0.767,0.061-18.891,1.616-29.619,12.248c-4.626,4.585-10.215,17.309-10.312,23.475c-0.122,7.884,2.892,13.732,8.486,16.47 l3.819,1.869c-3.215,5.375-6.04,10.036-6.117,10.164c-0.074,0.133-0.65,1.168-1.399,2.777c-2.867-5.425-6.472-8.335-7.116-8.827 c-0.36-0.308-2.07-1.769-4.062-3.441l1.021-1.009c2.691-2.657,3.283-6.566,1.666-11.006c-1.277-3.509-6.823-9.451-10.411-11.155 c-2.929-1.392-6.486-2.097-10.575-2.097c-4.677,0-8.384,0.933-8.539,0.973c-0.686,0.175-1.228,0.699-1.426,1.379 c-0.115,0.396-2.775,9.786,0.807,19.065c1.559,4.047,8.159,9.015,11.233,10.371c1.688,0.744,3.304,1.121,4.801,1.121 c3.302,0,5.475-1.768,6.824-3.099l1.026-1.015c2.34,1.964,4.403,3.728,4.442,3.762c0.043,0.037,0.097,0.079,0.142,0.113 c0.054,0.04,5.167,3.928,7.572,11.608c-0.636,2.104-1.144,4.379-1.328,6.63c-3.383,0.225-6.525,1.753-8.768,4.234 c-1.915-0.795-3.97-1.207-6.062-1.207c-4.445,0-8.687,1.892-11.678,5.137c-0.675-0.072-1.353-0.109-2.028-0.109 c-10.412,0-18.882,8.471-18.882,18.883c0,0.855,0.073,1.763,0.223,2.774c0.218,1.472,1.481,2.561,2.968,2.561h87.438 c1.487,0,2.75-1.089,2.968-2.561c0.149-1.012,0.223-1.919,0.223-2.774c0-9.167-6.441-16.837-15.257-18.532 c-2.76-5.608-8.518-9.264-14.856-9.264c-3.159,0-6.24,0.91-8.886,2.596c-0.772-0.454-1.589-0.822-2.434-1.106 c0.11-1.656,0.451-3.366,0.909-5.012c0.537-0.556,0.798-1.342,0.664-2.144c1.362-3.976,3.09-7.09,3.097-7.104 C72.113,74.041,74.975,69.318,78.186,63.947z"></path>
	</g>
</svg>