<svg xmlns="http://www.w3.org/2000/svg" xmlns:xlink="http://www.w3.org/1999/xlink" version="1.1" x="0px" y="0px" width="128px" height="128px" viewBox="0 0 128 128" xml:space="preserve" class="js-svg js-svg-replaced">
	<rect x="1.92" y="1.92" width="124.16" height="124.16" style="stroke: rgb(226, 250, 177); fill: none; stroke-alignment: inside; stroke-width: 3.84" rx="62.08" ry="62.08"></rect>
	<g transform="scale(0.6) translate(42.66666666666667, 42.66666666666667)">
		<path fill="#e2fab1" class="st0" d="M89.623,73.115c-1.848-6.623-5.336-12.557-10.012-17.332c-3.297,4.254-9.309,5.537-14.102,2.77 c-4.799-2.771-6.691-8.626-4.643-13.614c-3.205-0.821-6.562-1.258-10.02-1.258c-3.451,0-6.801,0.436-9.998,1.252 c2.043,4.989,0.148,10.842-4.652,13.612c-4.797,2.764-10.803,1.479-14.1-2.779c-4.684,4.779-8.18,10.719-10.025,17.35 c5.336,0.725,9.455,5.291,9.455,10.826c0,5.539-4.119,10.104-9.455,10.83c1.846,6.621,5.336,12.555,10.01,17.33 c3.301-4.256,9.311-5.535,14.104-2.768c4.797,2.77,6.689,8.625,4.643,13.611c3.203,0.82,6.561,1.258,10.02,1.258 c3.449,0,6.799-0.436,9.996-1.252c-2.047-4.988-0.146-10.842,4.652-13.611c4.795-2.764,10.805-1.48,14.102,2.777 c4.684-4.777,8.176-10.717,10.025-17.346c-5.336-0.727-9.457-5.291-9.457-10.83C80.166,78.406,84.287,73.839,89.623,73.115z M50.848,97.794c-7.639,0-13.854-6.215-13.854-13.854c0-7.638,6.215-13.852,13.854-13.852s13.852,6.214,13.852,13.852 C64.699,91.58,58.486,97.794,50.848,97.794z"></path>
		<path fill="#e2fab1" class="st0" d="M109.557,26.319c-0.346-3.332,1.848-6.338,5.012-7.108c-1.527-3.87-3.998-7.222-7.111-9.802 c-1.717,2.768-5.254,3.916-8.312,2.551c-3.062-1.367-4.566-4.771-3.646-7.901c-1.98-0.293-4.027-0.346-6.109-0.129 c-2.076,0.217-4.064,0.688-5.938,1.381c1.541,2.874,0.768,6.515-1.945,8.482c-2.715,1.964-6.408,1.567-8.662-0.787 c-2.518,3.169-4.248,6.962-4.943,11.067c3.256,0.104,6.021,2.592,6.369,5.924s-1.846,6.338-5.012,7.109 c1.527,3.869,3.998,7.221,7.111,9.801c1.719-2.768,5.256-3.914,8.312-2.549c3.061,1.365,4.568,4.77,3.648,7.899 c1.98,0.294,4.027,0.347,6.109,0.13c2.076-0.217,4.064-0.689,5.936-1.381c-1.545-2.875-0.768-6.516,1.947-8.482 c2.711-1.966,6.408-1.57,8.658,0.786c2.52-3.169,4.25-6.962,4.947-11.067C112.67,32.141,109.904,29.651,109.557,26.319z M92.682,35.513c-4.131,0.42-7.703-2.553-8.123-6.588c-0.203-1.964,0.369-3.891,1.613-5.424s3.012-2.491,4.975-2.696 c0.262-0.027,0.521-0.041,0.779-0.041c3.791,0,6.947,2.85,7.342,6.627C99.689,31.446,96.734,35.09,92.682,35.513z"></path>
	</g>
</svg>