<?xml version="1.0" encoding="utf-8"?><svg xmlns="http://www.w3.org/2000/svg" xmlns:xlink="http://www.w3.org/1999/xlink"><symbol viewBox="0 0 52 52" id="1" xmlns="http://www.w3.org/2000/svg"><path d="M26 0C11.664 0 0 11.663 0 26s11.664 26 26 26 26-11.663 26-26S40.336 0 26 0zm0 50C12.767 50 2 39.233 2 26S12.767 2 26 2s24 10.767 24 24-10.767 24-24 24z"/><path d="M38.252 15.336l-15.369 17.29-9.259-7.407a1 1 0 00-1.249 1.562l10 8a.999.999 0 001.373-.117l16-18a1 1 0 10-1.496-1.328z"/></symbol><symbol viewBox="0 0 512.006 512.006" id="2" xmlns="http://www.w3.org/2000/svg"><path d="M502.05 407.127l-56.761-37.844-50.459-33.633c-9.738-6.479-22.825-4.355-30.014 4.873l-31.223 40.139c-6.707 8.71-18.772 11.213-28.39 5.888-21.186-11.785-46.239-22.881-101.517-78.23-55.278-55.349-66.445-80.331-78.23-101.517-5.325-9.618-2.822-21.683 5.888-28.389l40.139-31.223c9.227-7.188 11.352-20.275 4.873-30.014l-32.6-48.905-38.877-58.316C98.262.03 85.016-2.95 74.786 3.185L29.95 30.083A54.779 54.779 0 005.074 62.277C-7.187 106.98-9.659 205.593 148.381 363.633s256.644 155.56 301.347 143.298a54.771 54.771 0 0032.194-24.876l26.898-44.835c6.136-10.231 3.156-23.476-6.77-30.093zM291.309 79.447c82.842.092 149.977 67.226 150.069 150.069a8.828 8.828 0 0017.656 0c-.102-92.589-75.135-167.622-167.724-167.724a8.828 8.828 0 00-8.828 8.828 8.826 8.826 0 008.827 8.827z"/><path d="M291.309 132.412c53.603.063 97.04 43.501 97.103 97.103a8.828 8.828 0 0017.656 0c-.073-63.349-51.409-114.686-114.759-114.759a8.828 8.828 0 000 17.656z"/><path d="M291.309 185.378c24.365.029 44.109 19.773 44.138 44.138a8.828 8.828 0 0017.656 0c-.039-34.111-27.682-61.754-61.793-61.793a8.828 8.828 0 00-8.828 8.828 8.826 8.826 0 008.827 8.827z"/></symbol><symbol viewBox="0 0 512 512" id="3" xmlns="http://www.w3.org/2000/svg"><path d="M256 0C153.755 0 70.573 83.182 70.573 185.426c0 126.888 165.939 313.167 173.004 321.035 6.636 7.391 18.222 7.378 24.846 0 7.065-7.868 173.004-194.147 173.004-321.035C441.425 83.182 358.244 0 256 0zm0 278.719c-51.442 0-93.292-41.851-93.292-93.293S204.559 92.134 256 92.134s93.291 41.851 93.291 93.293-41.85 93.292-93.291 93.292z"/></symbol><symbol viewBox="0 0 436.38 436.38" id="4" xmlns="http://www.w3.org/2000/svg"><path d="M340.38 23.224H206.396a32.01 32.01 0 00-22.624 9.376L9.372 206.968c-12.496 12.496-12.496 32.752 0 45.264l133.984 133.984c12.496 12.496 32.752 12.496 45.248 0l174.4-174.368c6-6.016 9.376-14.16 9.376-22.656V55.224c0-17.68-14.32-32-32-32zm-56 112c-13.248 0-24-10.752-24-24s10.752-24 24-24 24 10.752 24 24-10.752 24-24 24z"/><path d="M404.38 55.224l-.016 148.944a27.79 27.79 0 01-8.16 19.68L218.988 401.064l2.72 2.72c12.496 12.496 32.752 12.496 45.248 0l160.032-160a31.959 31.959 0 009.392-22.624V87.224c0-17.68-14.32-32-32-32z"/></symbol><symbol viewBox="0 0 512 512" id="5" xmlns="http://www.w3.org/2000/svg"><path d="M339.392 258.624L512 367.744V144.896zM0 144.896v222.848l172.608-109.12zM480 80H32C16.032 80 3.36 91.904.96 107.232L256 275.264l255.04-168.032C508.64 91.904 495.968 80 480 80zM310.08 277.952l-45.28 29.824a15.983 15.983 0 01-8.8 2.624c-3.072 0-6.112-.864-8.8-2.624l-45.28-29.856L1.024 404.992C3.488 420.192 16.096 432 32 432h448c15.904 0 28.512-11.808 30.976-27.008L310.08 277.952z"/></symbol></svg>