<?xml version="1.0" encoding="utf-8"?><svg xmlns="http://www.w3.org/2000/svg" xmlns:xlink="http://www.w3.org/1999/xlink"><symbol viewBox="0 0 52 52" id="1" xmlns="http://www.w3.org/2000/svg"><path d="M26 0C11.664 0 0 11.663 0 26s11.664 26 26 26 26-11.663 26-26S40.336 0 26 0zm0 50C12.767 50 2 39.233 2 26S12.767 2 26 2s24 10.767 24 24-10.767 24-24 24z"/><path d="M38.252 15.336l-15.369 17.29-9.259-7.407a1 1 0 00-1.249 1.562l10 8a.999.999 0 001.373-.117l16-18a1 1 0 10-1.496-1.328z"/></symbol><symbol viewBox="0 0 512 512" id="10" xmlns="http://www.w3.org/2000/svg"><path d="M106 512h300c24.814 0 45-20.186 45-45V150H346c-24.814 0-45-20.186-45-45V0H106C81.186 0 61 20.186 61 45v422c0 24.814 20.186 45 45 45zm60-301h180c8.291 0 15 6.709 15 15s-6.709 15-15 15H166c-8.291 0-15-6.709-15-15s6.709-15 15-15zm0 60h180c8.291 0 15 6.709 15 15s-6.709 15-15 15H166c-8.291 0-15-6.709-15-15s6.709-15 15-15zm0 60h180c8.291 0 15 6.709 15 15s-6.709 15-15 15H166c-8.291 0-15-6.709-15-15s6.709-15 15-15zm0 60h120c8.291 0 15 6.709 15 15s-6.709 15-15 15H166c-8.291 0-15-6.709-15-15s6.709-15 15-15z"/><path d="M346 120h96.211L331 8.789V105c0 8.276 6.724 15 15 15z"/></symbol><symbol viewBox="0 0 24 24" id="2" xmlns="http://www.w3.org/2000/svg"><path d="M9.417 15.181l-.397 5.584c.568 0 .814-.244 1.109-.537l2.663-2.545 5.518 4.041c1.012.564 1.725.267 1.998-.931L23.93 3.821l.001-.001c.321-1.496-.541-2.081-1.527-1.714l-21.29 8.151c-1.453.564-1.431 1.374-.247 1.741l5.443 1.693L18.953 5.78c.595-.394 1.136-.176.691.218z"/></symbol><symbol viewBox="0 0 24 24" id="3" xmlns="http://www.w3.org/2000/svg"><path d="M12 .5C5.37.5 0 5.78 0 12.292c0 5.211 3.438 9.63 8.205 11.188.6.111.82-.254.82-.567 0-.28-.01-1.022-.015-2.005-3.338.711-4.042-1.582-4.042-1.582-.546-1.361-1.335-1.725-1.335-1.725-1.087-.731.084-.716.084-.716 1.205.082 1.838 1.215 1.838 1.215 1.07 1.803 2.809 1.282 3.495.981.108-.763.417-1.282.76-1.577-2.665-.295-5.466-1.309-5.466-5.827 0-1.287.465-2.339 1.235-3.164-.135-.298-.54-1.497.105-3.121 0 0 1.005-.316 3.3 1.209.96-.262 1.98-.392 3-.398 1.02.006 2.04.136 3 .398 2.28-1.525 3.285-1.209 3.285-1.209.645 1.624.24 2.823.12 3.121.765.825 1.23 1.877 1.23 3.164 0 4.53-2.805 5.527-5.475 5.817.42.354.81 1.077.81 2.182 0 1.578-.015 2.846-.015 3.229 0 .309.21.678.825.56C20.565 21.917 24 17.495 24 12.292 24 5.78 18.627.5 12 .5z"/></symbol><symbol viewBox="0 0 512 512" id="4" xmlns="http://www.w3.org/2000/svg"><path d="M0 160h114.496v352H0zm426.368 4.128c-1.216-.384-2.368-.8-3.648-1.152a74.218 74.218 0 00-4.64-.896c-6.08-1.216-12.736-2.08-20.544-2.08-66.752 0-109.088 48.544-123.04 67.296V160H160v352h114.496V320s86.528-120.512 123.04-32v224H512V274.464c0-53.184-36.448-97.504-85.632-110.336z"/><circle cx="56" cy="56" r="56"/></symbol><symbol viewBox="0 0 512 512" id="5" xmlns="http://www.w3.org/2000/svg"><path d="M339.392 258.624L512 367.744V144.896zM0 144.896v222.848l172.608-109.12zM480 80H32C16.032 80 3.36 91.904.96 107.232L256 275.264l255.04-168.032C508.64 91.904 495.968 80 480 80zM310.08 277.952l-45.28 29.824a15.983 15.983 0 01-8.8 2.624c-3.072 0-6.112-.864-8.8-2.624l-45.28-29.856L1.024 404.992C3.488 420.192 16.096 432 32 432h448c15.904 0 28.512-11.808 30.976-27.008L310.08 277.952z"/></symbol><symbol viewBox="0 0 512 512" id="6" xmlns="http://www.w3.org/2000/svg"><path d="M256.064 0h-.128C114.784 0 0 114.816 0 256c0 56 18.048 107.904 48.736 150.048l-31.904 95.104 98.4-31.456C155.712 496.512 204 512 256.064 512 397.216 512 512 397.152 512 256S397.216 0 256.064 0zm148.96 361.504c-6.176 17.44-30.688 31.904-50.24 36.128-13.376 2.848-30.848 5.12-89.664-19.264-75.232-31.168-123.68-107.616-127.456-112.576-3.616-4.96-30.4-40.48-30.4-77.216s18.656-54.624 26.176-62.304c6.176-6.304 16.384-9.184 26.176-9.184 3.168 0 6.016.16 8.576.288 7.52.32 11.296.768 16.256 12.64 6.176 14.88 21.216 51.616 23.008 55.392 1.824 3.776 3.648 8.896 1.088 13.856-2.4 5.12-4.512 7.392-8.288 11.744-3.776 4.352-7.36 7.68-11.136 12.352-3.456 4.064-7.36 8.416-3.008 15.936 4.352 7.36 19.392 31.904 41.536 51.616 28.576 25.44 51.744 33.568 60.032 37.024 6.176 2.56 13.536 1.952 18.048-2.848 5.728-6.176 12.8-16.416 20-26.496 5.12-7.232 11.584-8.128 18.368-5.568 6.912 2.4 43.488 20.48 51.008 24.224 7.52 3.776 12.48 5.568 14.304 8.736 1.792 3.168 1.792 18.048-4.384 35.52z"/></symbol><symbol viewBox="0 0 511.626 511.627" id="7" xmlns="http://www.w3.org/2000/svg"><path d="M392.857 292.354h-18.274c-2.669 0-4.859.855-6.563 2.573-1.718 1.708-2.573 3.897-2.573 6.563v91.361c0 12.563-4.47 23.315-13.415 32.262-8.945 8.945-19.701 13.414-32.264 13.414H82.224c-12.562 0-23.317-4.469-32.264-13.414-8.945-8.946-13.417-19.698-13.417-32.262V155.31c0-12.562 4.471-23.313 13.417-32.259 8.947-8.947 19.702-13.418 32.264-13.418h200.994c2.669 0 4.859-.859 6.57-2.57 1.711-1.713 2.566-3.9 2.566-6.567V82.221c0-2.662-.855-4.853-2.566-6.563-1.711-1.713-3.901-2.568-6.57-2.568H82.224c-22.648 0-42.016 8.042-58.102 24.125C8.042 113.297 0 132.665 0 155.313v237.542c0 22.647 8.042 42.018 24.123 58.095 16.086 16.084 35.454 24.13 58.102 24.13h237.543c22.647 0 42.017-8.046 58.101-24.13 16.085-16.077 24.127-35.447 24.127-58.095v-91.358c0-2.669-.856-4.859-2.574-6.57-1.713-1.718-3.903-2.573-6.565-2.573z"/><path d="M506.199 41.971c-3.617-3.617-7.905-5.424-12.85-5.424H347.171c-4.948 0-9.233 1.807-12.847 5.424-3.617 3.615-5.428 7.898-5.428 12.847s1.811 9.233 5.428 12.85l50.247 50.248-186.147 186.151c-1.906 1.903-2.856 4.093-2.856 6.563 0 2.479.953 4.668 2.856 6.571l32.548 32.544c1.903 1.903 4.093 2.852 6.567 2.852s4.665-.948 6.567-2.852l186.148-186.148 50.251 50.248c3.614 3.617 7.898 5.426 12.847 5.426s9.233-1.809 12.851-5.426c3.617-3.616 5.424-7.898 5.424-12.847V54.818c-.001-4.952-1.814-9.232-5.428-12.847z"/></symbol><symbol viewBox="0 0 512 512" id="8" xmlns="http://www.w3.org/2000/svg"><path d="M365.291 168.033A295.963 295.963 0 0072 464a24 24 0 01-48 0 343.66 343.66 0 01341.376-343.968L397.334 144zM350.4 259.2l128-96a24 24 0 000-38.4l-128-96a24 24 0 10-28.8 38.4L424 144l-102.4 76.8a24 24 0 1028.8 38.4z"/></symbol><symbol viewBox="0 0 511.626 511.627" id="9" xmlns="http://www.w3.org/2000/svg"><g xmlns="http://www.w3.org/2000/svg"><path d="M392.857 292.354h-18.274c-2.669 0-4.859.855-6.563 2.573-1.718 1.708-2.573 3.897-2.573 6.563v91.361c0 12.563-4.47 23.315-13.415 32.262-8.945 8.945-19.701 13.414-32.264 13.414H82.224c-12.562 0-23.317-4.469-32.264-13.414-8.945-8.946-13.417-19.698-13.417-32.262V155.31c0-12.562 4.471-23.313 13.417-32.259 8.947-8.947 19.702-13.418 32.264-13.418h200.994c2.669 0 4.859-.859 6.57-2.57 1.711-1.713 2.566-3.9 2.566-6.567V82.221c0-2.662-.855-4.853-2.566-6.563-1.711-1.713-3.901-2.568-6.57-2.568H82.224c-22.648 0-42.016 8.042-58.102 24.125C8.042 113.297 0 132.665 0 155.313v237.542c0 22.647 8.042 42.018 24.123 58.095 16.086 16.084 35.454 24.13 58.102 24.13h237.543c22.647 0 42.017-8.046 58.101-24.13 16.085-16.077 24.127-35.447 24.127-58.095v-91.358c0-2.669-.856-4.859-2.574-6.57-1.713-1.718-3.903-2.573-6.565-2.573z" data-original="#000000"/><path d="M506.199 41.971c-3.617-3.617-7.905-5.424-12.85-5.424H347.171c-4.948 0-9.233 1.807-12.847 5.424-3.617 3.615-5.428 7.898-5.428 12.847s1.811 9.233 5.428 12.85l50.247 50.248-186.147 186.151c-1.906 1.903-2.856 4.093-2.856 6.563 0 2.479.953 4.668 2.856 6.571l32.548 32.544c1.903 1.903 4.093 2.852 6.567 2.852s4.665-.948 6.567-2.852l186.148-186.148 50.251 50.248c3.614 3.617 7.898 5.426 12.847 5.426s9.233-1.809 12.851-5.426c3.617-3.616 5.424-7.898 5.424-12.847V54.818c-.001-4.952-1.814-9.232-5.428-12.847z" data-original="#000000"/></g></symbol></svg>