<svg width="10" height="14" viewBox="0 0 10 14" fill="none" xmlns="http://www.w3.org/2000/svg">
<path d="M0.505859 3.11328L2.61328 0.980469C2.8418 0.751953 3.17188 0.625 3.47656 0.625H8.65625C9.3418 0.625 9.875 1.18359 9.875 1.84375V12.4062C9.875 13.0918 9.3418 13.625 8.65625 13.625H1.34375C0.683594 13.625 0.125 13.0918 0.125 12.4062V3.97656C0.125 3.67188 0.277344 3.3418 0.505859 3.11328ZM1.44531 3.875H3.375V1.94531L1.44531 3.875ZM8.65625 12.4062V1.84375H4.59375V4.48438C4.59375 4.83984 4.33984 5.09375 3.98438 5.09375H1.34375V12.4062H8.65625Z" fill="#C4C4C4"/>
</svg>
