<svg width="13" height="21" viewBox="0 0 13 21" fill="none" xmlns="http://www.w3.org/2000/svg">
<path d="M12.0607 2.56066C12.6464 1.97487 12.6464 1.02513 12.0607 0.43934C11.4749 -0.146447 10.5251 -0.146447 9.93934 0.43934L12.0607 2.56066ZM2 10.5L0.93934 9.43934C0.353553 10.0251 0.353553 10.9749 0.93934 11.5607L2 10.5ZM9.93934 20.5607C10.5251 21.1464 11.4749 21.1464 12.0607 20.5607C12.6464 19.9749 12.6464 19.0251 12.0607 18.4393L9.93934 20.5607ZM9.93934 0.43934L0.93934 9.43934L3.06066 11.5607L12.0607 2.56066L9.93934 0.43934ZM0.93934 11.5607L9.93934 20.5607L12.0607 18.4393L3.06066 9.43934L0.93934 11.5607Z" fill="#23507F"/>
</svg>
