<svg width="13" height="21" viewBox="0 0 13 21" fill="none" xmlns="http://www.w3.org/2000/svg">
<path d="M0.93934 18.4393C0.353554 19.0251 0.353554 19.9749 0.93934 20.5607C1.52513 21.1464 2.47487 21.1464 3.06066 20.5607L0.93934 18.4393ZM11 10.5L12.0607 11.5607C12.6464 10.9749 12.6464 10.0251 12.0607 9.43934L11 10.5ZM3.06066 0.439341C2.47487 -0.146445 1.52512 -0.146445 0.939338 0.439341C0.353552 1.02513 0.353552 1.97488 0.939338 2.56066L3.06066 0.439341ZM3.06066 20.5607L12.0607 11.5607L9.93934 9.43934L0.93934 18.4393L3.06066 20.5607ZM12.0607 9.43934L3.06066 0.439341L0.939338 2.56066L9.93934 11.5607L12.0607 9.43934Z" fill="#23507F"/>
</svg>
