<svg width="8" height="11" viewBox="0 0 8 11" fill="none" xmlns="http://www.w3.org/2000/svg">
<path d="M7.47656 2.16406C7.65885 2.34635 7.75 2.56771 7.75 2.82812V9.3125C7.75 9.57292 7.65885 9.79427 7.47656 9.97656C7.29427 10.1589 7.07292 10.25 6.8125 10.25H1.1875C0.927083 10.25 0.705729 10.1589 0.523438 9.97656C0.341146 9.79427 0.25 9.57292 0.25 9.3125V1.1875C0.25 0.927083 0.341146 0.705729 0.523438 0.523438C0.705729 0.341146 0.927083 0.25 1.1875 0.25H5.17188C5.43229 0.25 5.65365 0.341146 5.83594 0.523438L7.47656 2.16406ZM6.73438 2.75L5.25 1.26562V2.75H6.73438ZM1.1875 9.3125H6.8125V3.6875H4.78125C4.65104 3.6875 4.54036 3.64193 4.44922 3.55078C4.35807 3.45964 4.3125 3.34896 4.3125 3.21875V1.1875H1.1875V9.3125Z" fill="white"/>
</svg>
