<svg width="21" height="20" viewBox="0 0 21 20" fill="none" xmlns="http://www.w3.org/2000/svg">
<path d="M7.95489 3.5157C7.67987 3.54062 7.47712 3.78376 7.50204 4.05878C7.52696 4.33379 7.7701 4.53654 8.04511 4.51162L7.95489 3.5157ZM11.5 8C11.5 8.27614 11.7239 8.5 12 8.5C12.2761 8.5 12.5 8.27614 12.5 8H11.5ZM8.04511 4.51162C8.62567 4.45903 9.50096 4.5735 10.2154 5.06804C10.9003 5.54208 11.5 6.4074 11.5 8H12.5C12.5 6.11362 11.7664 4.92537 10.7846 4.24579C9.83237 3.58671 8.70766 3.4475 7.95489 3.5157L8.04511 4.51162Z" fill="#23507F"/>
<circle cx="8" cy="8" r="7" stroke="#23507F" stroke-width="2"/>
<line x1="13.4142" y1="13" x2="19" y2="18.5858" stroke="#23507F" stroke-width="2" stroke-linecap="round"/>
</svg>
